<svg width="267" height="211" viewBox="0 0 267 211" fill="none" xmlns="http://www.w3.org/2000/svg">
<path d="M235.749 140.071L235.292 143.808L243.267 135.315C244.221 135.406 245.18 135.452 246.139 135.454" stroke="#263238" stroke-linecap="round" stroke-linejoin="round"/>
<path d="M225.758 114.297C224.71 115.737 224.053 117.384 223.842 119.101C223.086 125.31 228.43 131.183 236.505 133.9L236.095 137.237" stroke="#263238" stroke-linecap="round" stroke-linejoin="round"/>
<path d="M228.858 111.205C228.338 111.589 227.845 112.001 227.381 112.439" stroke="#263238" stroke-linecap="round" stroke-linejoin="round"/>
<path d="M258.767 111.205C255.126 108.932 250.917 107.53 246.525 107.127C241.884 106.609 237.176 107.239 232.895 108.953" stroke="#263238" stroke-linecap="round" stroke-linejoin="round"/>
<path d="M251.688 134.952C259.306 133.515 265.079 129.079 265.752 123.324C266.245 119.299 264.176 115.418 260.478 112.439" stroke="#263238" stroke-linecap="round" stroke-linejoin="round"/>
<path d="M232.901 115.332C233.546 115.442 234.208 115.434 234.85 115.309C235.491 115.185 236.1 114.946 236.64 114.606L239.488 116.619C239.288 116.677 239.306 116.293 239.517 116.282C239.728 116.272 239.886 116.448 240.032 116.587C240.701 117.233 241.826 117.254 242.781 117.067C243.736 116.88 244.668 116.533 245.641 116.565C246.219 116.62 246.788 116.74 247.334 116.923C251.249 118.028 255.321 118.583 259.376 119.128" stroke="#263238" stroke-linecap="round" stroke-linejoin="round"/>
<path d="M229.537 119.128C230.123 119.096 233.387 119.128 233.856 118.77L234.653 120.035L235.532 119.261C235.684 119.795 235.837 120.329 235.983 120.831C236.645 120.975 236.569 119.811 237.155 119.464C237.335 119.384 237.542 119.368 237.735 119.421C237.927 119.473 238.09 119.59 238.192 119.747C238.384 120.075 238.477 120.444 238.462 120.815L242.47 121.114L243.25 121.173C243.528 120.785 243.941 120.494 244.422 120.345C244.275 121.189 245.441 121.669 246.367 121.84C250.926 122.687 255.509 123.418 260.115 124.034" stroke="#263238" stroke-linecap="round" stroke-linejoin="round"/>
<path d="M231.319 124.926C231.688 125.161 232.139 124.723 232.59 124.669C233.042 124.616 233.411 124.926 233.809 125.113C234.208 125.299 234.864 125.219 234.888 124.814C234.981 125.347 235.708 125.54 236.3 125.614L251.688 127.584" stroke="#263238" stroke-linecap="round" stroke-linejoin="round"/>
<path d="M25.4102 106.689L31.5749 114.248L30.3384 104.356C31.8123 103.704 33.222 102.938 34.5518 102.066C40.8688 97.9014 43.4121 91.2015 41.0974 85.8041C39.4741 82.0351 35.671 79.4725 30.8658 78.4102" stroke="#263238" stroke-linecap="round" stroke-linejoin="round"/>
<path d="M1.06183 94.7625C0.869717 96.4745 1.1268 98.2037 1.81191 99.8075C4.30827 105.627 12.0317 108.563 20.5639 107.549" stroke="#263238" stroke-linecap="round" stroke-linejoin="round"/>
<path d="M2.22809 90.7104C1.96635 91.2711 1.74133 91.8454 1.5542 92.4303" stroke="#263238" stroke-linecap="round" stroke-linejoin="round"/>
<path d="M28.715 78.0472C24.3306 77.5697 19.8848 78.1058 15.7878 79.606C11.415 81.1124 7.56872 83.6648 4.65381 86.9946" stroke="#263238" stroke-linecap="round" stroke-linejoin="round"/>
<path d="M7.91211 92.6483C9.17272 92.2901 10.2262 91.4916 10.8421 90.4274L14.3581 91.004C14.2057 91.1375 14.0299 90.7904 14.2116 90.689C14.3933 90.5876 14.6218 90.689 14.7976 90.7424C15.7235 91.0307 16.7255 90.5769 17.4756 90.0057C18.2257 89.4344 18.8703 88.7244 19.7552 88.3507C20.2957 88.1539 20.8604 88.0176 21.437 87.9449C25.4687 87.2722 29.3538 86.0337 33.2273 84.8004" stroke="#263238" stroke-linecap="round" stroke-linejoin="round"/>
<path d="M6.86914 97.4371C7.39068 97.1542 10.2797 95.8035 10.5141 95.3017L11.8677 96.0865C11.9966 95.7341 12.1256 95.3764 12.2486 95.0187L13.4499 96.2199C14.1121 96.0704 13.4499 95.0721 13.7664 94.5276C13.8842 94.3797 14.0593 94.2782 14.2562 94.2435C14.4531 94.2088 14.6572 94.2436 14.827 94.3407C15.1617 94.5453 15.4307 94.8271 15.6064 95.1575L19.3041 93.7268L20.0307 93.4492C20.0724 92.9907 20.2782 92.5574 20.6167 92.2159C20.9214 93.0328 22.1989 92.958 23.1014 92.7178C27.5745 91.5433 32.0066 90.2513 36.3977 88.8419" stroke="#263238" stroke-linecap="round" stroke-linejoin="round"/>
<path d="M11.4048 101.815C11.856 101.868 12.0318 101.281 12.401 101.046C12.7702 100.811 13.2624 100.934 13.7078 100.923C14.1531 100.913 14.6981 100.576 14.5106 100.208C14.868 100.64 15.6123 100.501 16.169 100.32L30.819 95.542" stroke="#263238" stroke-linecap="round" stroke-linejoin="round"/>
<path d="M204.099 15.0994H57.9859C55.1411 15.0994 52.835 17.2003 52.835 19.792V139.708C52.835 142.3 55.1411 144.401 57.9859 144.401H204.099C206.944 144.401 209.25 142.3 209.25 139.708V19.792C209.25 17.2003 206.944 15.0994 204.099 15.0994Z" fill="white"/>
<path opacity="0.2" d="M209.25 85.927V139.847C209.25 141.054 208.724 142.211 207.788 143.065C206.852 143.919 205.582 144.4 204.257 144.401H57.8335C56.5078 144.401 55.2364 143.921 54.299 143.067C53.3616 142.213 52.835 141.055 52.835 139.847V129.17H53.1455V136.366C53.1455 137.05 53.2935 137.728 53.581 138.36C53.8685 138.991 54.2899 139.565 54.8211 140.049C55.3522 140.532 55.9828 140.916 56.6766 141.177C57.3705 141.438 58.1141 141.572 58.8649 141.572H200.319C201.07 141.572 201.814 141.438 202.508 141.177C203.202 140.916 203.832 140.532 204.363 140.049C204.894 139.565 205.316 138.991 205.603 138.36C205.891 137.728 206.039 137.05 206.039 136.366V93.9243C206.039 92.9629 205.62 92.0409 204.873 91.3611C204.127 90.6813 203.115 90.2993 202.06 90.2993H52.835V85.927H209.25Z" fill="black"/>
<path d="M204.099 15.0994H57.9859C55.1411 15.0994 52.835 17.2003 52.835 19.792V139.708C52.835 142.3 55.1411 144.401 57.9859 144.401H204.099C206.944 144.401 209.25 142.3 209.25 139.708V19.792C209.25 17.2003 206.944 15.0994 204.099 15.0994Z" stroke="#263238" stroke-linecap="round" stroke-linejoin="round"/>
<path d="M195.631 101.281V95.104C195.632 94.8038 195.568 94.5063 195.442 94.2288C195.316 93.9513 195.132 93.6991 194.899 93.4868C194.666 93.2745 194.389 93.1062 194.084 92.9916C193.779 92.877 193.453 92.8184 193.123 92.8191H68.9617C68.2966 92.8191 67.6586 93.0598 67.1883 93.4883C66.7179 93.9169 66.4537 94.498 66.4537 95.104V101.281C66.4537 101.887 66.1894 102.468 65.7191 102.897C65.2487 103.325 64.6108 103.566 63.9456 103.566C63.2788 103.566 62.6394 103.807 62.168 104.237C61.6965 104.666 61.4316 105.249 61.4316 105.856V118.044C61.4316 120.855 62.6572 123.55 64.8386 125.538C67.02 127.525 69.9787 128.641 73.0637 128.641C73.5595 128.641 74.035 128.821 74.3856 129.14C74.7361 129.46 74.9331 129.893 74.9331 130.344V133.996C74.9331 135.344 75.5208 136.637 76.567 137.59C77.6133 138.543 79.0322 139.078 80.5118 139.078H181.573C183.053 139.078 184.472 138.543 185.518 137.59C186.564 136.637 187.152 135.344 187.152 133.996V130.344C187.152 129.893 187.349 129.46 187.7 129.14C188.05 128.821 188.526 128.641 189.021 128.641C190.549 128.641 192.061 128.367 193.473 127.835C194.884 127.302 196.166 126.522 197.247 125.538C198.327 124.554 199.183 123.385 199.768 122.1C200.353 120.814 200.653 119.436 200.653 118.044V105.856C200.653 105.25 200.389 104.668 199.919 104.238C199.449 103.809 198.811 103.567 198.145 103.566C197.48 103.566 196.841 103.325 196.37 102.897C195.899 102.469 195.633 101.887 195.631 101.281Z" fill="#263238"/>
<path d="M75.9645 96.3159H71.6223C71.0908 96.3159 70.581 96.5083 70.2052 96.8507C69.8293 97.1931 69.6182 97.6575 69.6182 98.1417V99.1561C69.6182 101.26 71.4875 103.929 73.7963 103.929C76.1052 103.929 77.9745 101.26 77.9745 99.1561V98.1417C77.9729 97.657 77.7605 97.1926 77.3837 96.8504C77.0069 96.5081 76.4966 96.3159 75.9645 96.3159Z" fill="white" stroke="#263238" stroke-linecap="round" stroke-linejoin="round"/>
<path d="M86.3542 96.3159H82.0119C81.4799 96.3159 80.9695 96.5081 80.5927 96.8504C80.216 97.1926 80.0035 97.657 80.002 98.1417V99.1561C80.002 101.26 81.8713 103.929 84.1801 103.929C86.4889 103.929 88.3583 101.26 88.3583 99.1561V98.1417C88.3583 97.6575 88.1471 97.1931 87.7713 96.8507C87.3954 96.5083 86.8857 96.3159 86.3542 96.3159Z" fill="white" stroke="#263238" stroke-linecap="round" stroke-linejoin="round"/>
<path d="M96.7849 96.3159H92.4426C91.9111 96.3159 91.4013 96.5083 91.0255 96.8507C90.6496 97.1931 90.4385 97.6575 90.4385 98.1417V99.1561C90.4385 101.26 92.3078 103.929 94.6108 103.929C96.9138 103.929 98.789 101.26 98.789 99.1561V98.1417C98.789 97.6575 98.5779 97.1931 98.202 96.8507C97.8262 96.5083 97.3164 96.3159 96.7849 96.3159Z" fill="white" stroke="#263238" stroke-linecap="round" stroke-linejoin="round"/>
<path d="M107.192 96.3159H102.85C102.318 96.3159 101.809 96.5083 101.433 96.8507C101.057 97.1931 100.846 97.6575 100.846 98.1417V99.1561C100.846 101.26 102.715 103.929 105.024 103.929C107.333 103.929 109.196 101.26 109.196 99.1561V98.1417C109.196 97.902 109.144 97.6645 109.044 97.443C108.943 97.2215 108.795 97.0202 108.609 96.8507C108.423 96.6811 108.202 96.5467 107.959 96.4549C107.716 96.3631 107.455 96.3159 107.192 96.3159Z" fill="white" stroke="#263238" stroke-linecap="round" stroke-linejoin="round"/>
<path d="M117.6 96.3159H113.258C112.726 96.3159 112.216 96.5083 111.84 96.8507C111.465 97.1931 111.253 97.6575 111.253 98.1417V99.1561C111.253 101.26 113.123 103.929 115.432 103.929C117.74 103.929 119.61 101.26 119.61 99.1561V98.1417C119.608 97.657 119.396 97.1926 119.019 96.8504C118.642 96.5081 118.132 96.3159 117.6 96.3159Z" fill="white" stroke="#263238" stroke-linecap="round" stroke-linejoin="round"/>
<path d="M128.013 96.3159H123.671C123.139 96.3159 122.628 96.5081 122.251 96.8504C121.875 97.1926 121.662 97.657 121.661 98.1417V99.1561C121.661 101.26 123.53 103.929 125.839 103.929C128.148 103.929 130.017 101.26 130.017 99.1561V98.1417C130.017 97.6575 129.806 97.1931 129.43 96.8507C129.054 96.5083 128.544 96.3159 128.013 96.3159Z" fill="white" stroke="#263238" stroke-linecap="round" stroke-linejoin="round"/>
<path d="M138.42 96.3159H134.078C133.546 96.3159 133.037 96.5083 132.661 96.8507C132.285 97.1931 132.074 97.6575 132.074 98.1417V99.1561C132.074 101.26 133.943 103.929 136.246 103.929C138.549 103.929 140.424 101.26 140.424 99.1561V98.1417C140.424 97.6575 140.213 97.1931 139.837 96.8507C139.461 96.5083 138.952 96.3159 138.42 96.3159Z" fill="white" stroke="#263238" stroke-linecap="round" stroke-linejoin="round"/>
<path d="M148.827 96.3159H144.485C143.954 96.3159 143.444 96.5083 143.068 96.8507C142.692 97.1931 142.481 97.6575 142.481 98.1417V99.1561C142.481 101.26 144.35 103.929 146.659 103.929C148.968 103.929 150.831 101.26 150.831 99.1561V98.1417C150.831 97.6575 150.62 97.1931 150.244 96.8507C149.869 96.5083 149.359 96.3159 148.827 96.3159Z" fill="white" stroke="#263238" stroke-linecap="round" stroke-linejoin="round"/>
<path d="M159.235 96.3159H154.916C154.653 96.3159 154.392 96.3631 154.149 96.4549C153.906 96.5467 153.685 96.6811 153.499 96.8507C153.313 97.0202 153.165 97.2215 153.065 97.443C152.964 97.6645 152.912 97.902 152.912 98.1417V99.1561C152.912 101.26 154.781 103.929 157.09 103.929C159.399 103.929 161.268 101.26 161.268 99.1561V98.1417C161.268 97.8999 161.214 97.6606 161.112 97.4377C161.009 97.2147 160.858 97.0125 160.669 96.8428C160.48 96.673 160.256 96.5391 160.01 96.4486C159.764 96.3582 159.5 96.3131 159.235 96.3159Z" fill="white" stroke="#263238" stroke-linecap="round" stroke-linejoin="round"/>
<path d="M169.648 96.3159H165.306C164.774 96.3159 164.263 96.5081 163.887 96.8504C163.51 97.1926 163.297 97.657 163.296 98.1417V99.1561C163.296 101.26 165.165 103.929 167.474 103.929C169.783 103.929 171.652 101.26 171.652 99.1561V98.1417C171.652 97.6575 171.441 97.1931 171.065 96.8507C170.689 96.5083 170.18 96.3159 169.648 96.3159Z" fill="white" stroke="#263238" stroke-linecap="round" stroke-linejoin="round"/>
<path d="M180.055 96.3159H175.713C175.182 96.3159 174.672 96.5083 174.296 96.8507C173.92 97.1931 173.709 97.6575 173.709 98.1417V99.1561C173.709 101.26 175.578 103.929 177.881 103.929C180.184 103.929 182.059 101.26 182.059 99.1561V98.1417C182.059 97.6575 181.848 97.1931 181.472 96.8507C181.097 96.5083 180.587 96.3159 180.055 96.3159Z" fill="white" stroke="#263238" stroke-linecap="round" stroke-linejoin="round"/>
<path d="M190.463 96.3159H186.12C185.589 96.3159 185.079 96.5083 184.703 96.8507C184.327 97.1931 184.116 97.6575 184.116 98.1418V99.1561C184.116 101.254 185.974 103.924 188.318 103.924C190.662 103.924 192.49 101.254 192.49 99.1508V98.1364C192.489 97.8953 192.436 97.6567 192.334 97.4344C192.231 97.2121 192.081 97.0105 191.893 96.8412C191.704 96.6719 191.481 96.5384 191.235 96.4482C190.99 96.3581 190.727 96.3131 190.463 96.3159Z" fill="white" stroke="#263238" stroke-linecap="round" stroke-linejoin="round"/>
<path d="M75.9645 116.411H71.6223C71.0908 116.411 70.581 116.603 70.2052 116.945C69.8293 117.288 69.6182 117.752 69.6182 118.236V119.251C69.6182 121.354 71.4875 124.024 73.7963 124.024C76.1052 124.024 77.9745 121.354 77.9745 119.251V118.236C77.9729 117.752 77.7605 117.287 77.3837 116.945C77.0069 116.603 76.4966 116.411 75.9645 116.411Z" fill="white" stroke="#263238" stroke-linecap="round" stroke-linejoin="round"/>
<path d="M86.3542 116.411H82.0119C81.4799 116.411 80.9695 116.603 80.5927 116.945C80.216 117.287 80.0035 117.752 80.002 118.236V119.251C80.002 121.354 81.8713 124.024 84.1801 124.024C86.4889 124.024 88.3583 121.354 88.3583 119.251V118.236C88.3583 117.752 88.1471 117.288 87.7713 116.945C87.3954 116.603 86.8857 116.411 86.3542 116.411Z" fill="white" stroke="#263238" stroke-linecap="round" stroke-linejoin="round"/>
<path d="M96.7849 116.411H92.4426C91.9111 116.411 91.4013 116.603 91.0255 116.945C90.6496 117.288 90.4385 117.752 90.4385 118.236V119.251C90.4385 121.354 92.3078 124.024 94.6108 124.024C96.9138 124.024 98.789 121.354 98.789 119.251V118.236C98.789 117.752 98.5779 117.288 98.202 116.945C97.8262 116.603 97.3164 116.411 96.7849 116.411Z" fill="white" stroke="#263238" stroke-linecap="round" stroke-linejoin="round"/>
<path d="M107.192 116.411H102.85C102.318 116.411 101.809 116.603 101.433 116.945C101.057 117.288 100.846 117.752 100.846 118.236V119.251C100.846 121.354 102.715 124.024 105.024 124.024C107.333 124.024 109.196 121.354 109.196 119.251V118.236C109.196 117.997 109.144 117.759 109.044 117.538C108.943 117.316 108.795 117.115 108.609 116.945C108.423 116.776 108.202 116.641 107.959 116.55C107.716 116.458 107.455 116.411 107.192 116.411Z" fill="white" stroke="#263238" stroke-linecap="round" stroke-linejoin="round"/>
<path d="M117.6 116.411H113.258C112.726 116.411 112.216 116.603 111.84 116.945C111.465 117.288 111.253 117.752 111.253 118.236V119.251C111.253 121.354 113.123 124.024 115.432 124.024C117.74 124.024 119.61 121.354 119.61 119.251V118.236C119.608 117.752 119.396 117.287 119.019 116.945C118.642 116.603 118.132 116.411 117.6 116.411Z" fill="white" stroke="#263238" stroke-linecap="round" stroke-linejoin="round"/>
<path d="M128.013 116.411H123.671C123.139 116.411 122.628 116.603 122.251 116.945C121.875 117.287 121.662 117.752 121.661 118.236V119.251C121.661 121.354 123.53 124.024 125.839 124.024C128.148 124.024 130.017 121.354 130.017 119.251V118.236C130.017 117.752 129.806 117.288 129.43 116.945C129.054 116.603 128.544 116.411 128.013 116.411Z" fill="white" stroke="#263238" stroke-linecap="round" stroke-linejoin="round"/>
<path d="M138.42 116.411H134.078C133.546 116.411 133.037 116.603 132.661 116.945C132.285 117.288 132.074 117.752 132.074 118.236V119.251C132.074 121.354 133.943 124.024 136.246 124.024C138.549 124.024 140.424 121.354 140.424 119.251V118.236C140.424 117.752 140.213 117.288 139.837 116.945C139.461 116.603 138.952 116.411 138.42 116.411Z" fill="white" stroke="#263238" stroke-linecap="round" stroke-linejoin="round"/>
<path d="M148.827 116.411H144.485C143.954 116.411 143.444 116.603 143.068 116.945C142.692 117.288 142.481 117.752 142.481 118.236V119.251C142.481 121.354 144.35 124.024 146.659 124.024C148.968 124.024 150.831 121.354 150.831 119.251V118.236C150.831 117.752 150.62 117.288 150.244 116.945C149.869 116.603 149.359 116.411 148.827 116.411Z" fill="white" stroke="#263238" stroke-linecap="round" stroke-linejoin="round"/>
<path d="M159.235 116.411H154.916C154.653 116.411 154.392 116.458 154.149 116.55C153.906 116.641 153.685 116.776 153.499 116.945C153.313 117.115 153.165 117.316 153.065 117.538C152.964 117.759 152.912 117.997 152.912 118.236V119.251C152.912 121.354 154.781 124.024 157.09 124.024C159.399 124.024 161.268 121.354 161.268 119.251V118.236C161.268 117.995 161.214 117.755 161.112 117.532C161.009 117.309 160.858 117.107 160.669 116.937C160.48 116.768 160.256 116.634 160.01 116.543C159.764 116.453 159.5 116.408 159.235 116.411Z" fill="white" stroke="#263238" stroke-linecap="round" stroke-linejoin="round"/>
<path d="M169.648 116.411H165.306C164.774 116.411 164.263 116.603 163.887 116.945C163.51 117.287 163.297 117.752 163.296 118.236V119.251C163.296 121.354 165.165 124.024 167.474 124.024C169.783 124.024 171.652 121.354 171.652 119.251V118.236C171.652 117.752 171.441 117.288 171.065 116.945C170.689 116.603 170.18 116.411 169.648 116.411Z" fill="white" stroke="#263238" stroke-linecap="round" stroke-linejoin="round"/>
<path d="M180.055 116.411H175.713C175.182 116.411 174.672 116.603 174.296 116.945C173.92 117.288 173.709 117.752 173.709 118.236V119.251C173.709 121.354 175.578 124.024 177.881 124.024C180.184 124.024 182.059 121.354 182.059 119.251V118.236C182.059 117.752 181.848 117.288 181.472 116.945C181.097 116.603 180.587 116.411 180.055 116.411Z" fill="white" stroke="#263238" stroke-linecap="round" stroke-linejoin="round"/>
<path d="M190.463 116.411H186.12C185.589 116.411 185.079 116.603 184.703 116.945C184.327 117.288 184.116 117.752 184.116 118.236V119.251C184.116 121.354 185.986 124.024 188.294 124.024C190.603 124.024 192.467 121.354 192.467 119.251V118.236C192.467 117.752 192.256 117.288 191.88 116.945C191.504 116.603 190.994 116.411 190.463 116.411Z" fill="white" stroke="#263238" stroke-linecap="round" stroke-linejoin="round"/>
<path d="M70.7604 106.689H66.4299C65.8984 106.689 65.3886 106.881 65.0128 107.224C64.6369 107.566 64.4258 108.031 64.4258 108.515V109.529C64.4258 111.627 66.2951 114.302 68.6039 114.302C70.9128 114.302 72.7762 111.633 72.7762 109.529V108.515C72.7762 108.274 72.724 108.036 72.6226 107.814C72.5211 107.591 72.3725 107.39 72.1851 107.22C71.9978 107.05 71.7755 106.916 71.531 106.825C71.2865 106.734 71.0246 106.688 70.7604 106.689Z" fill="white" stroke="#263238" stroke-linecap="round" stroke-linejoin="round"/>
<path d="M81.1682 106.689H76.8259C76.2944 106.689 75.7846 106.881 75.4088 107.224C75.0329 107.566 74.8218 108.031 74.8218 108.515V109.529C74.8218 111.627 76.6911 114.302 79 114.302C81.3088 114.302 83.1782 111.633 83.1782 109.529V108.515C83.1766 108.03 82.9642 107.566 82.5874 107.223C82.2106 106.881 81.7002 106.689 81.1682 106.689Z" fill="white" stroke="#263238" stroke-linecap="round" stroke-linejoin="round"/>
<path d="M91.5813 106.689H87.239C86.7069 106.689 86.1966 106.881 85.8198 107.223C85.443 107.566 85.2306 108.03 85.229 108.515V109.529C85.229 111.627 87.1042 114.302 89.4072 114.302C91.7102 114.302 93.5854 111.633 93.5854 109.529V108.515C93.5854 108.031 93.3742 107.566 92.9984 107.224C92.6225 106.881 92.1128 106.689 91.5813 106.689Z" fill="white" stroke="#263238" stroke-linecap="round" stroke-linejoin="round"/>
<path d="M101.988 106.689H97.6462C97.1147 106.689 96.6049 106.881 96.2291 107.224C95.8532 107.566 95.6421 108.031 95.6421 108.515V109.529C95.6421 111.627 97.5114 114.302 99.8144 114.302C102.117 114.302 103.993 111.633 103.993 109.529V108.515C103.993 108.275 103.941 108.038 103.84 107.816C103.739 107.595 103.592 107.393 103.406 107.224C103.22 107.054 102.999 106.92 102.755 106.828C102.512 106.736 102.252 106.689 101.988 106.689Z" fill="white" stroke="#263238" stroke-linecap="round" stroke-linejoin="round"/>
<path d="M112.396 106.689H108.036C107.504 106.689 106.995 106.881 106.619 107.224C106.243 107.566 106.032 108.031 106.032 108.515V109.529C106.032 111.627 107.901 114.302 110.21 114.302C112.519 114.302 114.382 111.633 114.382 109.529V108.515C114.382 108.033 114.174 107.571 113.801 107.229C113.429 106.887 112.924 106.693 112.396 106.689Z" fill="white" stroke="#263238" stroke-linecap="round" stroke-linejoin="round"/>
<path d="M122.803 106.689H118.461C117.93 106.689 117.42 106.881 117.044 107.224C116.668 107.566 116.457 108.031 116.457 108.515V109.529C116.457 111.627 118.326 114.302 120.635 114.302C122.944 114.302 124.813 111.633 124.813 109.529V108.515C124.812 108.03 124.599 107.566 124.223 107.223C123.846 106.881 123.335 106.689 122.803 106.689Z" fill="white" stroke="#263238" stroke-linecap="round" stroke-linejoin="round"/>
<path d="M133.234 106.689H128.892C128.36 106.689 127.849 106.881 127.473 107.223C127.096 107.566 126.883 108.03 126.882 108.515V109.529C126.882 111.627 128.757 114.302 131.06 114.302C133.363 114.302 135.238 111.633 135.238 109.529V108.515C135.238 108.031 135.027 107.566 134.651 107.224C134.275 106.881 133.766 106.689 133.234 106.689Z" fill="white" stroke="#263238" stroke-linecap="round" stroke-linejoin="round"/>
<path d="M143.624 106.689H139.281C138.75 106.689 138.24 106.881 137.864 107.224C137.489 107.566 137.277 108.031 137.277 108.515V109.529C137.277 111.627 139.147 114.302 141.45 114.302C143.753 114.302 145.628 111.633 145.628 109.529V108.515C145.628 108.031 145.417 107.566 145.041 107.224C144.665 106.881 144.155 106.689 143.624 106.689Z" fill="white" stroke="#263238" stroke-linecap="round" stroke-linejoin="round"/>
<path d="M154.031 106.689H149.689C149.157 106.689 148.647 106.881 148.272 107.224C147.896 107.566 147.685 108.031 147.685 108.515V109.529C147.685 111.627 149.554 114.302 151.863 114.302C154.172 114.302 156.035 111.633 156.035 109.529V108.515C156.035 108.031 155.824 107.566 155.448 107.224C155.072 106.881 154.562 106.689 154.031 106.689Z" fill="white" stroke="#263238" stroke-linecap="round" stroke-linejoin="round"/>
<path d="M164.439 106.689H160.096C159.565 106.689 159.055 106.881 158.679 107.224C158.303 107.566 158.092 108.031 158.092 108.515V109.529C158.092 111.627 159.962 114.302 162.27 114.302C164.579 114.302 166.449 111.633 166.449 109.529V108.515C166.447 108.03 166.235 107.566 165.858 107.223C165.481 106.881 164.971 106.689 164.439 106.689Z" fill="white" stroke="#263238" stroke-linecap="round" stroke-linejoin="round"/>
<path d="M174.84 106.689H170.498C169.966 106.689 169.455 106.881 169.079 107.223C168.702 107.566 168.489 108.03 168.488 108.515V109.529C168.488 111.627 170.363 114.302 172.666 114.302C174.969 114.302 176.844 111.633 176.844 109.529V108.515C176.844 108.031 176.633 107.566 176.257 107.224C175.881 106.881 175.372 106.689 174.84 106.689Z" fill="white" stroke="#263238" stroke-linecap="round" stroke-linejoin="round"/>
<path d="M185.259 106.689H180.917C180.39 106.696 179.888 106.891 179.518 107.233C179.149 107.575 178.942 108.035 178.942 108.515V109.529C178.942 111.627 180.811 114.302 183.114 114.302C185.417 114.302 187.292 111.633 187.292 109.529V108.515C187.292 108.273 187.24 108.033 187.137 107.81C187.034 107.587 186.884 107.384 186.695 107.214C186.506 107.044 186.281 106.91 186.035 106.82C185.788 106.73 185.525 106.685 185.259 106.689Z" fill="white" stroke="#263238" stroke-linecap="round" stroke-linejoin="round"/>
<path d="M195.667 106.689H191.324C190.793 106.689 190.283 106.881 189.907 107.224C189.531 107.566 189.32 108.031 189.32 108.515V109.529C189.32 111.627 191.19 114.302 193.498 114.302C195.807 114.302 197.671 111.633 197.671 109.529V108.515C197.671 108.031 197.46 107.566 197.084 107.224C196.708 106.881 196.198 106.689 195.667 106.689Z" fill="white" stroke="#263238" stroke-linecap="round" stroke-linejoin="round"/>
<path d="M170.797 126.533H91.2883C90.2494 126.533 89.4072 127.3 89.4072 128.246V133.446C89.4072 134.393 90.2494 135.16 91.2883 135.16H170.797C171.836 135.16 172.678 134.393 172.678 133.446V128.246C172.678 127.3 171.836 126.533 170.797 126.533Z" fill="white" stroke="#263238" stroke-linecap="round" stroke-linejoin="round"/>
<path d="M181.444 127.04H177.102C176.57 127.04 176.06 127.232 175.685 127.575C175.309 127.917 175.098 128.381 175.098 128.866V129.88C175.098 131.983 176.967 134.653 179.276 134.653C181.585 134.653 183.448 131.983 183.448 129.88V128.866C183.448 128.381 183.237 127.917 182.861 127.575C182.485 127.232 181.976 127.04 181.444 127.04Z" fill="white" stroke="#263238" stroke-linecap="round" stroke-linejoin="round"/>
<path d="M84.9831 127.04H80.6408C80.1093 127.04 79.5996 127.232 79.2237 127.575C78.8479 127.917 78.6367 128.381 78.6367 128.866V129.88C78.6367 131.983 80.5061 134.653 82.8149 134.653C85.1237 134.653 86.993 131.983 86.993 129.88V128.866C86.9915 128.381 86.779 127.917 86.4023 127.574C86.0255 127.232 85.5151 127.04 84.9831 127.04Z" fill="white" stroke="#263238" stroke-linecap="round" stroke-linejoin="round"/>
<path opacity="0.2" d="M76.2046 99.2148C76.415 99.2156 76.6248 99.2335 76.8317 99.2681C76.8317 99.2308 76.8317 99.1934 76.8317 99.156V98.1417C76.8301 97.9316 76.7374 97.7307 76.5739 97.5827C76.4103 97.4346 76.1891 97.3516 75.9585 97.3516H71.6163C71.3868 97.353 71.1671 97.4367 71.0047 97.5845C70.8424 97.7324 70.7506 97.9326 70.749 98.1417V99.156C70.749 100.613 71.921 102.45 73.304 102.818C72.8762 101.201 73.8372 99.2148 76.2046 99.2148Z" fill="black"/>
<path opacity="0.2" d="M86.8463 98.9426C86.9789 98.9344 87.1121 98.9344 87.2448 98.9426V98.1204C87.2432 97.9113 87.1513 97.7112 86.989 97.5633C86.8267 97.4154 86.607 97.3317 86.3775 97.3303H82.0352C81.8047 97.3303 81.5835 97.4134 81.4199 97.5614C81.2563 97.7094 81.1637 97.9104 81.1621 98.1204V99.1348C81.1621 100.736 82.5509 102.738 84.0921 102.872C83.383 101.217 84.3148 98.9426 86.8463 98.9426Z" fill="black"/>
<path opacity="0.2" d="M97.5641 98.8038H97.652V98.1364C97.652 97.9269 97.5607 97.7259 97.398 97.5777C97.2354 97.4296 97.0148 97.3463 96.7848 97.3463H92.4425C92.2119 97.3463 91.9907 97.4294 91.8271 97.5774C91.6636 97.7254 91.5709 97.9264 91.5693 98.1364V99.1508C91.5693 100.779 93.0461 102.888 94.6107 102.888C94.6868 102.893 94.7632 102.893 94.8392 102.888C94.054 101.201 94.9623 98.8038 97.5641 98.8038Z" fill="black"/>
<path opacity="0.2" d="M107.309 98.5315C107.553 98.5251 107.796 98.543 108.036 98.5849V98.1204C108.036 97.9109 107.944 97.7099 107.782 97.5617C107.619 97.4136 107.399 97.3303 107.169 97.3303H102.826C102.596 97.3303 102.376 97.4136 102.213 97.5617C102.05 97.7099 101.959 97.9109 101.959 98.1204V99.1348C101.959 100.662 103.248 102.605 104.701 102.872C103.705 101.195 104.567 98.5315 107.309 98.5315Z" fill="black"/>
<path opacity="0.2" d="M118.25 98.5314H118.473V98.1311C118.471 97.921 118.379 97.7201 118.215 97.572C118.051 97.424 117.83 97.3409 117.6 97.3409H113.257C113.028 97.3423 112.808 97.426 112.646 97.5739C112.484 97.7218 112.392 97.9219 112.39 98.1311V99.1454C112.39 100.774 113.867 102.882 115.431 102.882C115.511 102.888 115.592 102.888 115.672 102.882C114.646 101.201 115.508 98.5314 118.25 98.5314Z" fill="black"/>
<path opacity="0.2" d="M128.745 98.5849H128.88V98.1205C128.878 97.9113 128.787 97.7112 128.624 97.5633C128.462 97.4154 128.242 97.3317 128.013 97.3303H123.67C123.44 97.3303 123.219 97.4134 123.055 97.5614C122.892 97.7094 122.799 97.9104 122.797 98.1205V99.1348C122.797 100.763 124.274 102.872 125.839 102.872C125.934 102.88 126.03 102.88 126.126 102.872C125.165 101.19 126.038 98.5849 128.745 98.5849Z" fill="black"/>
<path opacity="0.2" d="M138.789 98.5314C138.956 98.5336 139.122 98.5443 139.287 98.5635V98.1417C139.287 97.9321 139.196 97.7312 139.033 97.583C138.871 97.4348 138.65 97.3516 138.42 97.3516H134.078C133.848 97.3516 133.627 97.4348 133.464 97.583C133.302 97.7312 133.21 97.9321 133.21 98.1417V99.1561C133.21 100.758 134.664 102.861 136.217 102.893C135.179 101.217 136.035 98.5314 138.789 98.5314Z" fill="black"/>
<path opacity="0.2" d="M149.695 98.6703V98.1364C149.695 97.9269 149.604 97.7259 149.441 97.5777C149.278 97.4296 149.058 97.3463 148.828 97.3463H144.485C144.255 97.3463 144.035 97.4296 143.872 97.5777C143.71 97.7259 143.618 97.9269 143.618 98.1364V99.1508C143.618 100.779 145.089 102.888 146.66 102.888C146.817 102.886 146.973 102.862 147.122 102.818C146.279 101.174 147.14 98.745 149.695 98.6703Z" fill="black"/>
<path opacity="0.2" d="M159.253 98.462C159.541 98.4615 159.829 98.4956 160.108 98.5635V98.1417C160.107 97.9317 160.014 97.7307 159.85 97.5827C159.687 97.4346 159.466 97.3516 159.235 97.3516H154.916C154.687 97.353 154.467 97.4367 154.305 97.5845C154.142 97.7324 154.05 97.9326 154.049 98.1417V99.1561C154.049 100.662 155.303 102.562 156.727 102.851C155.631 101.18 156.481 98.462 159.253 98.462Z" fill="black"/>
<path opacity="0.2" d="M169.894 98.462C170.103 98.4626 170.31 98.4805 170.515 98.5154V98.1417C170.514 97.9326 170.422 97.7324 170.26 97.5845C170.097 97.4367 169.878 97.353 169.648 97.3516H165.306C165.075 97.3516 164.854 97.4346 164.69 97.5827C164.527 97.7307 164.434 97.9316 164.433 98.1417V99.1561C164.433 100.758 165.839 102.792 167.363 102.893C166.261 101.217 167.105 98.462 169.894 98.462Z" fill="black"/>
<path opacity="0.2" d="M180.465 98.7343C180.618 98.7366 180.771 98.7473 180.922 98.7663V98.1417C180.922 97.9321 180.831 97.7312 180.668 97.583C180.506 97.4348 180.285 97.3516 180.055 97.3516H175.713C175.599 97.3516 175.486 97.372 175.381 97.4117C175.276 97.4514 175.18 97.5096 175.1 97.583C175.019 97.6564 174.955 97.7435 174.912 97.8393C174.868 97.9352 174.846 98.0379 174.846 98.1417V99.1561C174.846 100.758 176.252 102.786 177.776 102.893C176.926 101.206 177.823 98.7343 180.465 98.7343Z" fill="black"/>
<path opacity="0.2" d="M191.33 98.6115V98.1417C191.33 97.9321 191.239 97.7312 191.076 97.583C190.914 97.4348 190.693 97.3516 190.463 97.3516H186.121C185.891 97.3516 185.67 97.4348 185.507 97.583C185.345 97.7312 185.253 97.9321 185.253 98.1417V99.1561C185.253 100.784 186.724 102.893 188.295 102.893C188.521 102.89 188.744 102.847 188.951 102.765C188.119 101.153 188.904 98.793 191.33 98.6115Z" fill="black"/>
<path opacity="0.2" d="M76.5035 118.338C76.6148 118.332 76.7263 118.332 76.8375 118.338V118.226C76.836 118.016 76.7433 117.815 76.5797 117.667C76.4162 117.519 76.195 117.436 75.9644 117.436H71.6222C71.3926 117.437 71.1729 117.521 71.0106 117.669C70.8483 117.816 70.7564 118.017 70.7549 118.226V119.24C70.7549 120.868 72.2316 122.977 73.7962 122.977C73.9044 122.975 74.0122 122.964 74.1185 122.945C72.8059 121.322 73.6028 118.338 76.5035 118.338Z" fill="black"/>
<path opacity="0.2" d="M86.6998 118.338C86.8824 118.338 87.0647 118.353 87.2448 118.381V118.242C87.2432 118.033 87.1513 117.832 86.989 117.685C86.8267 117.537 86.607 117.453 86.3775 117.452H82.0352C81.8047 117.452 81.5835 117.535 81.4199 117.683C81.2563 117.831 81.1637 118.032 81.1621 118.242V119.256C81.1621 120.884 82.6388 122.993 84.2034 122.993H84.3324C82.9904 121.349 83.7815 118.338 86.6998 118.338Z" fill="black"/>
<path opacity="0.2" d="M97.0426 118.471C97.2391 118.472 97.4352 118.488 97.6286 118.519V118.236C97.6286 118.133 97.6062 118.03 97.5626 117.934C97.519 117.838 97.4551 117.751 97.3746 117.678C97.294 117.604 97.1984 117.546 97.0932 117.506C96.988 117.467 96.8752 117.446 96.7613 117.446H92.419C92.1885 117.446 91.9673 117.529 91.8037 117.677C91.6401 117.825 91.5474 118.026 91.5459 118.236V119.251C91.5459 120.852 92.9992 122.95 94.5521 122.988C93.3859 121.327 94.2005 118.471 97.0426 118.471Z" fill="black"/>
<path opacity="0.2" d="M107.608 118.541C107.759 118.541 107.91 118.55 108.059 118.567V118.236C108.059 118.133 108.037 118.03 107.993 117.934C107.95 117.838 107.886 117.751 107.805 117.678C107.725 117.604 107.629 117.546 107.524 117.506C107.419 117.467 107.306 117.446 107.192 117.446H102.85C102.736 117.446 102.623 117.467 102.518 117.506C102.413 117.546 102.317 117.604 102.236 117.678C102.156 117.751 102.092 117.838 102.048 117.934C102.005 118.03 101.982 118.133 101.982 118.236V119.251C101.982 120.879 103.453 122.988 105.024 122.988H105.094C103.969 121.317 104.807 118.541 107.608 118.541Z" fill="black"/>
<path opacity="0.2" d="M117.805 118.338C118.029 118.338 118.253 118.358 118.473 118.397V118.242C118.471 118.032 118.379 117.831 118.215 117.683C118.051 117.535 117.83 117.452 117.6 117.452H113.257C113.028 117.453 112.808 117.537 112.646 117.685C112.484 117.832 112.392 118.033 112.39 118.242V119.256C112.39 120.884 113.867 122.993 115.431 122.993C114.095 121.359 114.881 118.338 117.805 118.338Z" fill="black"/>
<path opacity="0.2" d="M128.37 118.402C128.541 118.403 128.711 118.416 128.88 118.439V118.236C128.878 118.027 128.787 117.827 128.624 117.679C128.462 117.531 128.242 117.448 128.013 117.446H123.67C123.44 117.446 123.219 117.529 123.055 117.677C122.892 117.825 122.799 118.026 122.797 118.236V119.251C122.797 120.879 124.274 122.988 125.839 122.988H125.95C124.684 121.333 125.493 118.402 128.37 118.402Z" fill="black"/>
<path opacity="0.2" d="M139.164 118.605H139.287V118.231C139.287 118.022 139.196 117.821 139.033 117.672C138.871 117.524 138.65 117.441 138.42 117.441H134.078C133.848 117.441 133.627 117.524 133.464 117.672C133.302 117.821 133.21 118.022 133.21 118.231V119.245C133.21 120.874 134.681 122.982 136.246 122.982C136.36 122.981 136.474 122.968 136.586 122.945C135.578 121.279 136.416 118.605 139.164 118.605Z" fill="black"/>
<path opacity="0.2" d="M149.642 118.402H149.677V118.236C149.677 118.133 149.655 118.03 149.611 117.934C149.568 117.838 149.504 117.751 149.423 117.678C149.343 117.604 149.247 117.546 149.142 117.506C149.037 117.467 148.924 117.446 148.81 117.446H144.485C144.372 117.446 144.259 117.467 144.154 117.506C144.048 117.546 143.953 117.604 143.872 117.678C143.792 117.751 143.728 117.838 143.684 117.934C143.641 118.03 143.618 118.133 143.618 118.236V119.251C143.618 120.879 145.089 122.988 146.66 122.988C146.839 122.985 147.017 122.957 147.187 122.902C145.997 121.247 146.824 118.402 149.642 118.402Z" fill="black"/>
<path opacity="0.2" d="M159.774 118.199H160.102C160.093 117.995 159.998 117.801 159.837 117.659C159.675 117.517 159.46 117.437 159.235 117.436H154.916C154.687 117.437 154.467 117.521 154.305 117.669C154.142 117.816 154.05 118.017 154.049 118.226V119.24C154.049 120.868 155.526 122.977 157.09 122.977C157.233 122.973 157.375 122.953 157.512 122.918C156.041 121.327 156.803 118.199 159.774 118.199Z" fill="black"/>
<path opacity="0.2" d="M170.498 118.338V118.242C170.496 118.033 170.404 117.832 170.242 117.685C170.08 117.537 169.86 117.453 169.63 117.452H165.288C165.058 117.452 164.836 117.535 164.673 117.683C164.509 117.831 164.417 118.032 164.415 118.242V119.256C164.415 120.884 165.892 122.993 167.456 122.993C167.656 122.99 167.854 122.958 168.042 122.897C166.818 121.242 167.626 118.338 170.498 118.338Z" fill="black"/>
<path opacity="0.2" d="M180.7 118.338H180.934V118.231C180.934 118.127 180.912 118.025 180.868 117.929C180.825 117.833 180.761 117.746 180.68 117.672C180.6 117.599 180.504 117.541 180.399 117.501C180.294 117.461 180.181 117.441 180.067 117.441H175.725C175.495 117.441 175.274 117.524 175.111 117.672C174.949 117.821 174.857 118.022 174.857 118.231V119.245C174.857 120.874 176.328 122.982 177.893 122.982C178.032 122.981 178.169 122.963 178.303 122.929C176.996 121.295 177.799 118.338 180.7 118.338Z" fill="black"/>
<path opacity="0.2" d="M190.955 118.744C191.084 118.744 191.213 118.744 191.33 118.744V118.21C191.33 118 191.239 117.799 191.076 117.651C190.914 117.503 190.693 117.42 190.463 117.42H186.121C185.891 117.42 185.67 117.503 185.507 117.651C185.345 117.799 185.253 118 185.253 118.21V119.224C185.253 120.852 186.724 122.961 188.295 122.961C187.386 121.306 188.265 118.744 190.955 118.744Z" fill="black"/>
<path opacity="0.2" d="M71.5577 108.776H71.6339V108.515C71.6324 108.305 71.5397 108.104 71.3761 107.956C71.2125 107.808 70.9913 107.725 70.7608 107.725H66.4303C66.2002 107.725 65.9796 107.808 65.817 107.956C65.6544 108.104 65.563 108.305 65.563 108.515V109.529C65.563 111.157 67.0338 113.266 68.6043 113.266C68.7552 113.263 68.9049 113.241 69.0497 113.202C67.9246 111.536 68.7742 108.776 71.5577 108.776Z" fill="black"/>
<path opacity="0.2" d="M81.7481 108.776H82.0411V108.504C82.0396 108.294 81.9469 108.093 81.7833 107.945C81.6198 107.797 81.3986 107.714 81.168 107.714H76.8258C76.5962 107.715 76.3765 107.799 76.2142 107.947C76.0519 108.095 75.96 108.295 75.9585 108.504V109.518C75.9585 111.147 77.4352 113.255 78.9998 113.255C79.0857 113.261 79.1718 113.261 79.2577 113.255C78.1032 111.584 78.9354 108.776 81.7481 108.776Z" fill="black"/>
<path opacity="0.2" d="M92.3957 108.776H92.4484V108.515C92.4469 108.306 92.355 108.105 92.1927 107.958C92.0304 107.81 91.8107 107.726 91.5811 107.725H87.2389C87.1237 107.723 87.0094 107.743 86.9025 107.782C86.7956 107.821 86.6982 107.878 86.616 107.952C86.5337 108.025 86.4682 108.113 86.4233 108.209C86.3783 108.306 86.3548 108.41 86.354 108.515V109.529C86.354 111.157 87.8307 113.266 89.3954 113.266C89.5526 113.264 89.7087 113.241 89.8583 113.197C88.7625 111.536 89.6005 108.776 92.3957 108.776Z" fill="black"/>
<path opacity="0.2" d="M102.586 108.728H102.856V108.525C102.856 108.316 102.764 108.115 102.602 107.967C102.439 107.819 102.218 107.735 101.988 107.735H97.6461C97.4161 107.735 97.1955 107.819 97.0328 107.967C96.8702 108.115 96.7788 108.316 96.7788 108.525V109.54C96.7788 111.168 98.2497 113.277 99.8143 113.277C99.9206 113.275 100.026 113.264 100.131 113.245C98.9177 111.585 99.7381 108.728 102.586 108.728Z" fill="black"/>
<path opacity="0.2" d="M112.724 108.776C112.911 108.776 113.097 108.791 113.281 108.819V108.515C113.281 108.305 113.19 108.104 113.027 107.956C112.864 107.808 112.644 107.725 112.414 107.725H108.036C107.806 107.725 107.586 107.808 107.423 107.956C107.26 108.104 107.169 108.305 107.169 108.515V109.529C107.169 111.157 108.64 113.266 110.21 113.266C109.05 111.606 109.876 108.776 112.724 108.776Z" fill="black"/>
<path opacity="0.2" d="M123.202 108.435C123.358 108.435 123.515 108.444 123.671 108.461C123.654 108.262 123.556 108.075 123.395 107.938C123.234 107.802 123.023 107.725 122.803 107.725H118.461C118.231 107.726 118.012 107.81 117.849 107.958C117.687 108.105 117.595 108.306 117.594 108.515V109.529C117.594 111.157 119.07 113.266 120.635 113.266C120.748 113.264 120.859 113.252 120.969 113.229C119.446 111.643 120.19 108.435 123.202 108.435Z" fill="black"/>
<path opacity="0.2" d="M133.691 108.84C133.826 108.84 133.961 108.84 134.084 108.84V108.493C134.082 108.284 133.99 108.084 133.828 107.936C133.666 107.788 133.446 107.705 133.216 107.703H128.874C128.644 107.703 128.422 107.786 128.259 107.934C128.095 108.082 128.003 108.283 128.001 108.493V109.508C128.001 111.136 129.478 113.245 131.042 113.245H131.159C130.064 111.59 130.89 108.84 133.691 108.84Z" fill="black"/>
<path opacity="0.2" d="M144.491 108.515C144.491 108.305 144.399 108.104 144.237 107.956C144.074 107.808 143.854 107.725 143.624 107.725H139.281C139.167 107.725 139.055 107.745 138.949 107.785C138.844 107.824 138.749 107.883 138.668 107.956C138.588 108.029 138.524 108.117 138.48 108.212C138.437 108.308 138.414 108.411 138.414 108.515V109.529C138.414 111.157 139.885 113.266 141.45 113.266C141.762 113.259 142.068 113.182 142.34 113.042C141.157 111.451 141.871 108.728 144.491 108.515Z" fill="black"/>
<path opacity="0.2" d="M154.916 108.728V108.525C154.916 108.316 154.825 108.115 154.662 107.967C154.499 107.819 154.279 107.735 154.049 107.735H149.707C149.477 107.735 149.256 107.819 149.093 107.967C148.931 108.115 148.839 108.316 148.839 108.525V109.54C148.839 111.168 150.31 113.277 151.881 113.277C152.132 113.273 152.38 113.22 152.607 113.122C151.535 111.494 152.303 108.862 154.916 108.728Z" fill="black"/>
<path opacity="0.2" d="M164.948 108.568C165.071 108.568 165.195 108.568 165.312 108.568V108.499C165.31 108.289 165.217 108.088 165.054 107.94C164.89 107.792 164.669 107.708 164.439 107.708H160.096C159.867 107.71 159.647 107.794 159.485 107.941C159.322 108.089 159.231 108.29 159.229 108.499V109.513C159.229 111.141 160.706 113.25 162.27 113.25C162.381 113.249 162.491 113.236 162.599 113.213C161.239 111.606 162.018 108.568 164.948 108.568Z" fill="black"/>
<path opacity="0.2" d="M175.719 108.915V108.515C175.717 108.306 175.626 108.105 175.463 107.958C175.301 107.81 175.081 107.726 174.852 107.725H170.509C170.279 107.725 170.058 107.808 169.894 107.956C169.73 108.104 169.638 108.305 169.636 108.515V109.529C169.636 111.157 171.113 113.266 172.678 113.266C172.855 113.264 173.031 113.237 173.199 113.186C172.244 111.531 173.082 108.979 175.719 108.915Z" fill="black"/>
<path opacity="0.2" d="M185.634 108.638C185.799 108.64 185.963 108.65 186.127 108.67V108.515C186.127 108.305 186.035 108.104 185.873 107.956C185.71 107.808 185.489 107.725 185.259 107.725H180.917C180.803 107.725 180.69 107.745 180.585 107.785C180.48 107.824 180.384 107.883 180.304 107.956C180.223 108.029 180.159 108.117 180.116 108.212C180.072 108.308 180.05 108.411 180.05 108.515V109.529C180.05 111.157 181.521 113.266 183.085 113.266C183.14 113.269 183.195 113.269 183.249 113.266C181.937 111.616 182.734 108.638 185.634 108.638Z" fill="black"/>
<path opacity="0.2" d="M196.129 109.049C196.264 109.04 196.399 109.04 196.534 109.049V108.515C196.534 108.305 196.442 108.104 196.28 107.956C196.117 107.808 195.897 107.725 195.667 107.725H191.324C191.094 107.725 190.874 107.808 190.711 107.956C190.548 108.104 190.457 108.305 190.457 108.515V109.529C190.457 111.131 191.916 113.266 193.481 113.266C192.567 111.584 193.451 109.049 196.129 109.049Z" fill="black"/>
<path opacity="0.2" d="M171.541 133.478V128.214C171.541 127.858 171.224 127.568 170.832 127.568H91.2531C90.8615 127.568 90.5441 127.858 90.5441 128.214V133.478C90.5441 133.835 90.8615 134.124 91.2531 134.124H170.832C171.224 134.124 171.541 133.835 171.541 133.478Z" fill="black"/>
<path opacity="0.2" d="M182.312 129.394V128.86C182.312 128.757 182.289 128.654 182.246 128.558C182.202 128.462 182.138 128.375 182.058 128.302C181.977 128.228 181.882 128.17 181.776 128.13C181.671 128.091 181.558 128.07 181.444 128.07H177.102C176.988 128.07 176.875 128.091 176.77 128.13C176.665 128.17 176.569 128.228 176.489 128.302C176.408 128.375 176.344 128.462 176.301 128.558C176.257 128.654 176.235 128.757 176.235 128.86V129.875C176.235 131.503 177.706 133.612 179.276 133.612C179.407 133.609 179.536 133.593 179.663 133.564C178.796 131.898 179.681 129.41 182.312 129.394Z" fill="black"/>
<path opacity="0.2" d="M85.3463 129.052C85.517 129.054 85.6874 129.066 85.8561 129.09V128.866C85.8545 128.656 85.7619 128.455 85.5983 128.307C85.4347 128.159 85.2135 128.075 84.9829 128.075H80.6407C80.4112 128.077 80.1915 128.161 80.0291 128.308C79.8668 128.456 79.775 128.656 79.7734 128.866V129.88C79.7734 131.508 81.2502 133.617 82.8148 133.617H82.9144C81.6662 131.962 82.4866 129.052 85.3463 129.052Z" fill="black"/>
<path opacity="0.2" d="M59.2221 17.7046H202.862C203.849 17.7046 204.796 18.0618 205.494 18.6975C206.191 19.3333 206.583 20.1955 206.583 21.0946V50.991H55.501V21.0946C55.501 20.1955 55.893 19.3333 56.5909 18.6975C57.2887 18.0618 58.2352 17.7046 59.2221 17.7046Z" fill="black"/>
<path d="M191.119 23.3422H70.9893C69.9876 15.7631 68.2221 8.28418 65.7153 1H196.417C193.87 8.27585 192.097 15.7575 191.119 23.3422Z" fill="white"/>
<path opacity="0.2" d="M192.303 16.1404C191.43 20.486 191.131 23.3422 191.131 23.3422H71.0011C71.0011 23.3422 70.6964 20.5394 69.7998 16.1404H192.303Z" fill="black"/>
<path d="M191.119 23.3422H70.9893C69.9876 15.7631 68.2221 8.28418 65.7153 1H196.417C193.87 8.27585 192.097 15.7575 191.119 23.3422V23.3422Z" stroke="#263238" stroke-linecap="round" stroke-linejoin="round"/>
<path d="M189.484 42.1555H71.6338V86.3274H189.484V42.1555Z" fill="#263238"/>
<g opacity="0.4">
<path opacity="0.4" d="M127.62 82.4195L128.241 82.4462C129.023 71.4308 129.804 60.3976 130.585 49.3466C129.589 60.4011 128.601 71.4254 127.62 82.4195Z" fill="white"/>
<path opacity="0.4" d="M125.616 82.2808L126.237 82.3289C127.592 71.3846 128.946 60.3924 130.298 49.3521C128.739 60.3995 127.178 71.3757 125.616 82.2808Z" fill="white"/>
<path opacity="0.4" d="M123.665 82.0778C123.87 82.0778 124.081 82.1205 124.286 82.1418C126.208 71.3151 128.142 60.3833 130.087 49.3466C127.938 60.394 125.798 71.3044 123.665 82.0778Z" fill="white"/>
<path opacity="0.4" d="M121.689 81.8056L122.316 81.8964C124.809 71.2191 127.321 60.3638 129.852 49.3306C127.118 60.3745 124.397 71.1995 121.689 81.8056Z" fill="white"/>
<path opacity="0.4" d="M119.721 81.4691L120.354 81.5865C123.401 71.1122 126.489 60.3638 129.618 49.3413C126.29 60.3673 122.991 71.0766 119.721 81.4691Z" fill="white"/>
<path opacity="0.4" d="M117.764 81.0635L118.397 81.2076C121.989 70.9681 125.681 60.3495 129.384 49.3358C125.464 60.3495 121.555 70.92 117.764 81.0635Z" fill="white"/>
<path opacity="0.4" d="M115.812 80.5831L116.451 80.7539C120.553 70.8027 124.848 60.3283 129.149 49.3253C124.631 60.3283 120.131 70.7439 115.812 80.5831Z" fill="white"/>
<path opacity="0.4" d="M113.896 80.0385L114.535 80.2253C119.17 70.6157 124.034 60.3068 128.933 49.3198C123.794 60.3068 118.707 70.541 113.896 80.0385Z" fill="white"/>
<path opacity="0.4" d="M111.95 79.4139L112.595 79.6274C117.728 70.3809 123.184 60.2802 128.68 49.3093C122.955 60.2802 117.271 70.2902 111.95 79.4139Z" fill="white"/>
<path opacity="0.4" d="M110.052 78.7091L110.696 78.9547C116.299 70.1246 122.346 60.2695 128.446 49.2986C122.1 60.2481 115.836 70.0499 110.052 78.7091Z" fill="white"/>
<path opacity="0.4" d="M108.171 77.9189L108.816 78.2019C114.863 69.8469 121.502 60.2107 128.212 49.2878C121.262 60.2107 114.394 69.7562 108.171 77.9189Z" fill="white"/>
<path opacity="0.4" d="M106.319 77.0434L106.963 77.3638C113.409 69.532 120.658 60.168 127.977 49.2719C121.302 58.8715 114.072 68.1417 106.319 77.0434Z" fill="white"/>
<path opacity="0.4" d="M104.52 76.0825C104.731 76.2053 104.954 76.3174 105.17 76.4348C113.303 67.8049 120.849 58.7301 127.767 49.2612C120.688 58.6671 112.921 67.6278 104.52 76.0825Z" fill="white"/>
<path opacity="0.4" d="M102.721 75.0201L103.359 75.4205C112.135 67.2792 120.209 58.5335 127.508 49.2612C120.057 58.4685 111.765 67.0854 102.721 75.0201Z" fill="white"/>
<path opacity="0.4" d="M127.274 49.2291C117.846 59.9865 108.622 68.1919 101.004 73.8616L101.631 74.3047C111.036 66.7094 119.623 58.3127 127.274 49.2291Z" fill="white"/>
<path opacity="0.4" d="M127.04 49.2131C116.996 59.8904 107.181 67.6955 99.334 72.6071L99.9552 73.0929C107.696 67.8717 117.26 59.9171 127.04 49.2131Z" fill="white"/>
<path opacity="0.4" d="M126.788 49.1971C116.14 59.7944 105.768 67.1403 97.7456 71.2404C97.939 71.4219 98.1324 71.6035 98.3316 71.7743C106.278 67.3432 116.421 59.8211 126.788 49.1971Z" fill="white"/>
<path opacity="0.4" d="M126.571 49.1758C115.343 59.6662 104.432 66.5263 96.2808 69.7828L96.8668 70.3647C104.936 66.7505 115.601 59.6982 126.571 49.1758Z" fill="white"/>
<path opacity="0.4" d="M94.9331 68.224C95.103 68.4375 95.2788 68.651 95.4546 68.8593C103.629 66.1099 114.793 59.5487 126.343 49.1598C114.558 59.5007 103.155 65.8483 94.9331 68.224Z" fill="white"/>
<path opacity="0.4" d="M93.7373 66.6011C93.8897 66.8254 94.0479 67.0496 94.2061 67.2738C102.41 65.3946 114.06 59.3566 126.108 49.1223C113.825 59.2978 101.971 65.1116 93.7373 66.6011Z" fill="white"/>
<path opacity="0.4" d="M92.7178 64.9515C92.8467 65.1864 92.9815 65.416 93.1162 65.6509C101.32 64.6365 113.368 59.1324 125.874 49.1278C113.163 59.0363 100.922 64.3109 92.7178 64.9515Z" fill="white"/>
<path opacity="0.4" d="M91.8857 63.2644C91.9912 63.4993 92.1026 63.7396 92.2139 63.9745C100.371 63.793 112.724 58.8334 125.616 49.0903C112.577 58.7319 100.031 63.4513 91.8857 63.2644Z" fill="white"/>
<path opacity="0.4" d="M129.606 82.4941H130.222C130.409 71.461 130.605 60.4136 130.808 49.3521C130.398 60.4065 129.997 71.4539 129.606 82.4941Z" fill="white"/>
<path opacity="0.4" d="M131.587 82.5049H132.208C131.817 71.4717 131.427 60.4242 131.036 49.3625L131.587 82.5049Z" fill="white"/>
<path opacity="0.4" d="M133.568 82.4569H134.189C133.212 71.4593 132.235 60.4261 131.259 49.3573C132.028 60.4119 132.798 71.4451 133.568 82.4569Z" fill="white"/>
<path opacity="0.4" d="M135.578 82.3447L136.199 82.302C134.637 71.3863 133.074 60.403 131.511 49.3521C132.855 60.403 134.211 71.4006 135.578 82.3447Z" fill="white"/>
<path opacity="0.4" d="M137.529 82.174L138.151 82.1046C136.025 71.3169 133.877 60.3976 131.705 49.3466C133.662 60.3976 135.603 71.34 137.529 82.174Z" fill="white"/>
<path opacity="0.4" d="M139.504 81.9337L140.131 81.8483C137.436 71.2244 134.711 60.3905 131.957 49.3466C134.488 60.394 137.004 71.2564 139.504 81.9337Z" fill="white"/>
<path opacity="0.4" d="M141.473 81.6293L142.1 81.5225C138.846 71.1086 135.543 60.3816 132.191 49.3413C135.308 60.3816 138.403 71.1442 141.473 81.6293Z" fill="white"/>
<path opacity="0.4" d="M143.43 81.2556L144.069 81.1222C140.272 70.9787 136.357 60.3708 132.425 49.3358C136.141 60.3726 139.809 71.0125 143.43 81.2556Z" fill="white"/>
<path opacity="0.4" d="M145.388 80.8179L146.02 80.6524C141.696 70.7919 137.189 60.3656 132.66 49.3253C136.967 60.3549 141.256 70.824 145.388 80.8179Z" fill="white"/>
<path opacity="0.4" d="M147.327 80.3L147.972 80.1079C143.126 70.5944 138.01 60.3548 132.894 49.3198C137.805 60.3335 142.68 70.6531 147.327 80.3Z" fill="white"/>
<path opacity="0.4" d="M149.255 79.7074L149.9 79.4885C144.567 70.3648 138.871 60.3122 133.128 49.3093C138.643 60.3122 144.11 70.4342 149.255 79.7074Z" fill="white"/>
<path opacity="0.4" d="M151.165 79.0402C151.382 78.9547 151.605 78.88 151.816 78.7946C146.015 70.1139 139.721 60.2855 133.363 49.2986C139.486 60.2855 145.54 70.1887 151.165 79.0402Z" fill="white"/>
<path opacity="0.4" d="M153.058 78.298L153.709 78.015C147.468 69.8309 140.571 60.2588 133.597 49.2932C140.33 60.2481 146.987 69.9163 153.058 78.298Z" fill="white"/>
<path opacity="0.4" d="M154.916 77.4598C155.133 77.3584 155.349 77.2463 155.56 77.1395C147.778 68.2067 140.521 58.9044 133.82 49.2719C141.18 60.2161 148.47 69.6067 154.916 77.4598Z" fill="white"/>
<path opacity="0.4" d="M156.756 76.5363L157.412 76.1839C148.974 67.6982 141.175 58.7036 134.066 49.2612C141.009 58.7675 148.587 67.8763 156.756 76.5363Z" fill="white"/>
<path opacity="0.4" d="M134.3 49.2451C141.629 58.5608 149.738 67.346 158.555 75.522L159.205 75.1216C150.116 67.153 141.784 58.4965 134.3 49.2451Z" fill="white"/>
<path opacity="0.4" d="M134.535 49.2291C142.222 58.3563 150.856 66.7876 160.319 74.4061C160.535 74.262 160.741 74.1125 160.952 73.963C153.31 68.2934 144.016 60.0505 134.535 49.2291Z" fill="white"/>
<path opacity="0.4" d="M134.769 49.2131C144.614 59.9812 154.236 67.9678 162 73.189C162.211 73.0288 162.428 72.8687 162.633 72.7032C154.757 67.8023 144.878 59.9758 134.769 49.2131Z" fill="white"/>
<path opacity="0.4" d="M134.992 49.1971C145.452 59.8744 155.648 67.4499 163.618 71.8756C163.823 71.6994 164.016 71.5126 164.204 71.3417C156.176 67.247 145.727 59.8744 134.992 49.1971Z" fill="white"/>
<path opacity="0.4" d="M135.238 49.1758C146.296 59.7783 157.043 66.8627 165.124 70.4503L165.71 69.8631C157.559 66.6439 146.559 59.757 135.238 49.1758Z" fill="white"/>
<path opacity="0.4" d="M166.572 68.9341C166.753 68.7205 166.923 68.507 167.099 68.2881C158.866 65.9658 147.357 59.5968 135.455 49.1598C147.105 59.6395 158.379 66.2221 166.572 68.9341Z" fill="white"/>
<path opacity="0.4" d="M167.843 67.3273L168.324 66.6439C160.079 65.2292 148.113 59.3994 135.701 49.1384C147.884 59.4581 159.604 65.5121 167.843 67.3273Z" fill="white"/>
<path opacity="0.4" d="M168.98 65.6669C169.121 65.432 169.255 65.1971 169.39 64.9568C161.186 64.423 148.816 59.143 135.988 49.1171C148.576 59.2285 160.776 64.7433 168.98 65.6669Z" fill="white"/>
<path opacity="0.4" d="M136.164 49.0903C149.197 58.9454 161.714 63.905 169.859 63.9797C169.976 63.7395 170.088 63.4993 170.199 63.259C162.065 63.5633 149.384 58.8386 136.164 49.0903Z" fill="white"/>
</g>
<path opacity="0.2" d="M113.896 50.1474C111.675 55.3365 114.078 70.4342 130.105 70.4342C146.132 70.4342 151.951 59.8263 151.3 53.2705L172.695 50.1313C172.695 50.1313 179.253 66.6384 165.329 78.1859C151.406 89.7334 103.143 88.986 92.9407 80.2092C82.7384 71.4325 88.3992 54.0926 88.3992 54.0926L113.896 50.1474Z" fill="black"/>
<path d="M207.797 27.7572V24.1163C207.796 23.9815 207.844 23.8503 207.931 23.7417C208.019 23.6331 208.142 23.553 208.283 23.513L211.213 22.6802V19.0392C211.213 18.6031 211.403 18.1849 211.742 17.8765C212.08 17.5681 212.539 17.3949 213.018 17.3949H216.534C216.707 17.3919 216.875 17.4504 217.002 17.5579C217.129 17.6655 217.205 17.8138 217.214 17.9715V19.146C217.214 19.3065 217.144 19.4605 217.02 19.5744C216.896 19.6884 216.728 19.7532 216.552 19.7546H212.081V23.3155C212.078 23.4228 212.047 23.528 211.988 23.6213C211.93 23.7146 211.847 23.793 211.747 23.8493L209.25 25.2267V27.7626L207.797 27.7572Z" fill="#999999" stroke="#263238" stroke-linecap="round" stroke-linejoin="round"/>
<path d="M211.653 27.7572H207.797V38.2637H211.653V27.7572Z" fill="#263238"/>
<path d="M216.475 26.8656H211.652V39.1553H216.475V26.8656Z" fill="#757575"/>
<path opacity="0.2" d="M216.463 34.3505H211.652V39.1553H216.463V34.3505Z" fill="black"/>
<path d="M216.475 26.8656H211.652V39.1553H216.475V26.8656Z" stroke="#263238" stroke-linecap="round" stroke-linejoin="round"/>
<path d="M50.4322 38.2583H54.2881V27.752H50.4322V38.2583Z" fill="#263238"/>
<path d="M45.6094 39.1499H50.4321V26.8604H45.6094V39.1499Z" fill="#757575"/>
<path opacity="0.2" d="M50.438 34.3505H45.6152V39.0376H50.438V34.3505Z" fill="black"/>
<path d="M45.6094 39.1499H50.4321V26.8604H45.6094V39.1499Z" stroke="#263238" stroke-linecap="round" stroke-linejoin="round"/>
<path d="M53.708 33.635C54.0562 32.8027 54.11 31.8921 53.8621 31.0306C53.6141 30.169 53.0767 29.3997 52.325 28.8302L49.4888 26.6947C49.3083 26.5561 49.0985 26.453 48.8723 26.3916C48.6461 26.3302 48.4085 26.312 48.1742 26.3381C47.94 26.3641 47.7141 26.4339 47.5108 26.543C47.3075 26.6521 47.131 26.7983 46.9924 26.9723L35.7471 41.1038C35.5331 41.3681 35.4181 41.6882 35.419 42.0167V57.1945C35.4189 57.3982 35.4633 57.5999 35.5496 57.7879C35.6359 57.9758 35.7623 58.1463 35.9215 58.2893C36.0807 58.4324 36.2695 58.5452 36.477 58.6212C36.6845 58.6972 36.9065 58.7349 37.1301 58.732C37.5777 58.732 38.0069 58.57 38.3234 58.2817C38.6399 57.9933 38.8177 57.6023 38.8177 57.1945V44.8675C38.8188 44.5632 38.9232 44.2667 39.1166 44.0187L47.5257 33.3413C47.5993 33.2476 47.6935 33.1688 47.8023 33.1099C47.9111 33.051 48.0321 33.0134 48.1577 32.9993C48.2833 32.9853 48.4107 32.9951 48.5319 33.0283C48.6531 33.0614 48.7654 33.1171 48.8618 33.1919L50.4088 34.3877C50.7918 34.6838 51.2777 34.8465 51.78 34.8468C52.1978 34.8446 52.6052 34.7277 52.949 34.5116C53.2929 34.2954 53.5574 33.99 53.708 33.635Z" fill="white" stroke="#263238" stroke-linecap="round" stroke-linejoin="round"/>
<path d="M51.3873 32.2531C51.8307 32.2531 52.1901 31.9254 52.1901 31.5213C52.1901 31.1172 51.8307 30.7896 51.3873 30.7896C50.9439 30.7896 50.5845 31.1172 50.5845 31.5213C50.5845 31.9254 50.9439 32.2531 51.3873 32.2531Z" fill="#999999" stroke="#263238" stroke-linecap="round" stroke-linejoin="round"/>
<path d="M204.222 22.6802H57.8687V43.3301H204.222V22.6802Z" fill="#263238"/>
<path opacity="0.2" d="M202.107 24.2336H59.9254C59.4788 24.2336 59.1167 24.5635 59.1167 24.9704V28.3124C59.1167 28.7193 59.4788 29.0492 59.9254 29.0492H202.107C202.553 29.0492 202.915 28.7193 202.915 28.3124V24.9704C202.915 24.5635 202.553 24.2336 202.107 24.2336Z" fill="white"/>
<path d="M191.119 47.4835H70.9893C67.604 40.4338 65.8104 32.8356 65.7153 25.1412H196.417C196.417 35.4876 191.119 47.4835 191.119 47.4835Z" fill="white"/>
<g opacity="0.7">
<path opacity="0.7" d="M80.7051 45.8076C80.7051 45.8076 83.3362 45.6794 84.8071 44.873C86.2779 44.0666 86.1725 45.5993 87.0163 45.7008C87.8601 45.8022 89.8525 45.1667 90.9073 45.1667C91.9621 45.1667 91.1593 45.7542 92.3489 45.7008C93.5385 45.6474 92.8997 45.7542 93.5209 45.6474L98.6132 44.873C98.6132 44.873 101.198 44.4191 101.719 44.6487C102.241 44.8784 102.926 46.0105 103.688 45.7168C104.45 45.4231 104.045 45.1828 105.194 45.1828C105.904 45.1858 106.61 45.2792 107.292 45.4605C107.292 45.4605 107.397 45.1881 107.925 45.1828H108.868C108.868 45.1828 110.866 45.6634 111.183 45.6634C111.499 45.6634 113.861 45.1881 113.943 45.1828C114.025 45.1774 116.287 44.6487 116.287 44.6487C116.767 45.1059 117.375 45.4346 118.045 45.5993C118.901 45.7008 119.803 45.4925 120.448 45.7542C121.092 46.0159 123.214 45.6474 123.214 45.6474C123.72 45.6504 124.225 45.6861 124.725 45.7542C125.382 45.8907 126.066 45.8724 126.712 45.7008C127.9 45.4145 129.147 45.3961 130.345 45.6474C132.25 45.9625 134.002 45.1721 134.81 45.1667C135.619 45.1614 138.854 45.4925 139.967 45.4925C141.081 45.4925 144.028 45.8557 146.079 45.6474C148.13 45.4391 149.472 45.9091 150.849 45.9091C152.226 45.9091 153.697 45.8557 154.014 45.8557C154.33 45.8557 155.854 44.9478 158.034 45.1667C160.214 45.3857 158.274 44.8944 159.616 45.1667C160.958 45.4391 162.018 45.7008 162.587 45.7542C163.043 45.7784 163.5 45.7605 163.952 45.7008L166.296 45.5459H177.981" stroke="#263238" stroke-linecap="round" stroke-linejoin="round"/>
<path opacity="0.7" d="M78.2734 41.6861C78.2734 41.6861 85.5105 41.6861 86.8173 41.5793C88.1241 41.4724 88.8214 40.8636 89.5188 40.8636C90.2161 40.8636 93.738 41.4724 93.738 41.4724C93.8407 41.2733 94.0084 41.1079 94.2182 40.9989C94.428 40.8899 94.6696 40.8427 94.91 40.8636C95.8652 40.8636 95.3788 40.9437 96.2578 41.2642C97.1368 41.5846 96.6797 41.2642 97.1426 41.5793C97.8327 41.8617 98.5624 42.0558 99.3108 42.1561C99.3108 42.1561 102.575 42.2949 102.698 41.5793C102.821 40.8636 104.456 42.1561 104.456 42.1561C104.456 42.1561 108.886 41.5793 110.597 41.5793C112.308 41.5793 116.598 41.2642 116.598 41.2642C116.598 41.2642 120.114 41.6861 120.278 41.6861C120.442 41.6861 121.022 42.5246 121.649 42.1561C122.276 41.7875 122.88 41.3656 123.624 41.4724C124.315 41.6287 124.984 41.8581 125.616 42.1561L127.251 41.3656L129.127 41.4724C129.127 41.4724 131.037 42.6314 132.402 42.1561C133.442 41.7774 134.457 41.3459 135.444 40.8636L137.125 42.1561H138.227L141.491 41.5793C141.742 41.8607 142.081 42.0663 142.463 42.1692C142.844 42.2722 143.251 42.2676 143.63 42.1561C145.013 41.7929 158.227 42.1561 161.591 42.1561C164.955 42.1561 165.693 41.3656 165.693 41.3656L168.283 42.1561H181.175" stroke="#263238" stroke-linecap="round" stroke-linejoin="round"/>
</g>
<path opacity="0.2" d="M192.344 44.3977C191.635 46.3197 191.119 47.4835 191.119 47.4835H70.9894C70.9894 47.4835 70.4034 46.3624 69.6006 44.3977H192.344Z" fill="black"/>
<path opacity="0.2" d="M194.846 36.3151C194.442 37.9166 193.996 39.4808 193.557 40.8635H68.2936C67.8599 39.5075 67.4146 37.9754 67.0278 36.3151H194.846Z" fill="black"/>
<path d="M191.119 47.4835H70.9893C67.604 40.4338 65.8104 32.8356 65.7153 25.1412H196.417C196.417 35.4876 191.119 47.4835 191.119 47.4835Z" stroke="#263238" stroke-linecap="round" stroke-linejoin="round"/>
<path d="M57.8392 21.6178H54.2588V44.4032H57.8392V21.6178Z" fill="#757575"/>
<path opacity="0.2" d="M57.7689 37.6443H54.2822V44.4032H57.7689V37.6443Z" fill="black"/>
<path d="M57.8392 21.6178H54.2588V44.4032H57.8392V21.6178Z" stroke="#263238" stroke-linecap="round" stroke-linejoin="round"/>
<path d="M207.826 21.6178H204.246V44.4032H207.826V21.6178Z" fill="#757575"/>
<path opacity="0.2" d="M207.826 37.6443H204.216V44.4032H207.826V37.6443Z" fill="black"/>
<path d="M207.826 21.6178H204.246V44.4032H207.826V21.6178Z" stroke="#263238" stroke-linecap="round" stroke-linejoin="round"/>
<path d="M204.275 20.6622V37.2813H57.8102V20.6622H56.4038V38.3971H205.681V20.6622H204.275Z" fill="#999999" stroke="#263238" stroke-linecap="round" stroke-linejoin="round"/>
<path d="M212.93 48.6579V85.927C212.93 86.5557 212.656 87.1586 212.168 87.6031C211.68 88.0476 211.018 88.2974 210.328 88.2974H51.739C51.049 88.2974 50.3872 88.0476 49.8993 87.6031C49.4113 87.1586 49.1372 86.5557 49.1372 85.927V48.6579C49.1372 48.0293 49.4113 47.4264 49.8993 46.9818C50.3872 46.5373 51.049 46.2876 51.739 46.2876H124.813V48.6579C124.813 48.6579 112.337 58.5184 90.8252 62.154C93.9076 74.8653 110.749 84.5763 131.072 84.5763C151.394 84.5763 168.236 74.8547 171.324 62.154C149.783 58.5184 137.307 48.6579 137.307 48.6579V46.2662H210.346C210.688 46.2683 211.026 46.3319 211.342 46.4533C211.657 46.5747 211.942 46.7515 212.183 46.9737C212.423 47.1959 212.612 47.459 212.74 47.748C212.869 48.037 212.933 48.3462 212.93 48.6579Z" fill="white" stroke="#263238" stroke-linecap="round" stroke-linejoin="round"/>
<path d="M212.93 48.6579V85.927C212.93 86.2387 212.863 86.5474 212.731 86.8353C212.6 87.1233 212.408 87.3848 212.166 87.605C211.924 87.8252 211.636 87.9997 211.32 88.1185C211.004 88.2373 210.665 88.2981 210.322 88.2974H51.739C51.3969 88.2981 51.0579 88.2373 50.7416 88.1185C50.4252 87.9997 50.1377 87.8252 49.8955 87.605C49.6533 87.3848 49.4611 87.1233 49.33 86.8353C49.1988 86.5474 49.1313 86.2387 49.1313 85.927V48.6579C49.1329 48.0283 49.4081 47.4249 49.8968 46.9796C50.3855 46.5344 51.0479 46.2837 51.739 46.2823H124.813V48.6579C124.813 48.6579 112.331 58.5131 90.8253 62.154C93.9076 74.8653 110.749 84.5763 131.078 84.5763C151.406 84.5763 168.236 74.8547 171.324 62.154C149.783 58.5131 137.307 48.6579 137.307 48.6579V46.2662H210.346C211.036 46.2719 211.696 46.5269 212.181 46.9752C212.665 47.4236 212.935 48.0288 212.93 48.6579Z" fill="white"/>
<path opacity="0.2" d="M209.414 49.2293V83.6367C209.414 83.8655 209.365 84.092 209.268 84.3032C209.172 84.5144 209.03 84.7061 208.852 84.8674C208.674 85.0286 208.463 85.1562 208.23 85.2428C207.998 85.3294 207.749 85.3732 207.498 85.3718H53.2981C53.0477 85.3725 52.7997 85.3281 52.5683 85.2412C52.3369 85.1542 52.1267 85.0264 51.9497 84.8652C51.7727 84.7039 51.6324 84.5124 51.537 84.3015C51.4415 84.0907 51.3928 83.8648 51.3936 83.6367V49.2293C51.3928 49.0007 51.4414 48.7742 51.5367 48.5628C51.632 48.3514 51.7721 48.1591 51.949 47.997C52.1258 47.8349 52.336 47.7062 52.5674 47.618C52.7989 47.5299 53.0472 47.4842 53.2981 47.4835H124.79V48.658C124.79 48.658 112.308 58.5131 90.8021 62.1541C93.8844 74.8654 110.726 84.5763 131.054 84.5763C151.383 84.5763 168.213 74.8547 171.301 62.1541C149.76 58.5131 137.284 48.658 137.284 48.658V47.4835H207.516C208.021 47.4877 208.504 47.6735 208.859 48.0005C209.215 48.3274 209.414 48.769 209.414 49.2293Z" fill="white"/>
<path d="M212.93 48.6579V85.927C212.93 86.2387 212.863 86.5474 212.731 86.8353C212.6 87.1233 212.408 87.3848 212.166 87.605C211.924 87.8252 211.636 87.9997 211.32 88.1185C211.004 88.2373 210.665 88.2981 210.322 88.2974H51.739C51.3969 88.2981 51.0579 88.2373 50.7416 88.1185C50.4252 87.9997 50.1377 87.8252 49.8955 87.605C49.6533 87.3848 49.4611 87.1233 49.33 86.8353C49.1988 86.5474 49.1313 86.2387 49.1313 85.927V48.6579C49.1329 48.0283 49.4081 47.4249 49.8968 46.9796C50.3855 46.5344 51.0479 46.2837 51.739 46.2823H124.813V48.6579C124.813 48.6579 112.331 58.5131 90.8253 62.154C93.9076 74.8653 110.749 84.5763 131.078 84.5763C151.406 84.5763 168.236 74.8547 171.324 62.154C149.783 58.5131 137.307 48.6579 137.307 48.6579V46.2662H210.346C211.036 46.2719 211.696 46.5269 212.181 46.9752C212.665 47.4236 212.935 48.0288 212.93 48.6579V48.6579Z" stroke="#263238" stroke-linecap="round" stroke-linejoin="round"/>
<path opacity="0.2" d="M160.542 99.343L168.33 119.133C168.33 119.133 171.699 97.3517 173.709 97.3517C175.719 97.3517 180.05 109.262 180.05 109.262C180.05 109.262 182.722 103.048 185.253 102.824C187.785 102.6 190.076 118.082 190.076 118.082L190.469 152.446L187.275 204.418C187.275 204.418 166.9 183.971 160.958 178.702C155.016 173.433 149.337 161.837 147.696 159.483C146.056 157.128 145.64 144.801 145.64 144.801C147.717 142.38 148.803 139.375 148.71 136.302C148.71 136.302 153.492 129.01 153.199 123.628C152.906 118.247 152.168 97.3357 160.542 99.343Z" fill="black" fill-opacity="0.7"/>
<path d="M221.843 195.214L190.996 209.997C190.996 209.847 186.941 203.863 182.042 197.093C179.827 194.029 177.436 190.81 175.168 187.895C171.453 183.127 166.73 179.011 166.326 178.115C165.154 175.445 156.117 165.451 154.096 161.565C152.074 157.678 151.611 145.586 150.72 142.741C149.83 139.895 152.385 137.178 154.436 135.854C156.487 134.53 158.637 131.049 158.637 131.049C158.637 131.049 156.369 122.998 156.346 118.904C156.323 114.809 154.793 100.517 156.621 99.1828C158.45 97.8482 160.085 98.4087 160.542 99.327C162.042 102.354 163.39 109.967 164.544 113.474C165.699 116.982 167.867 127.157 168.933 127.889C170 128.62 171.898 125.876 171.898 125.876C171.898 125.876 172.08 117.334 172.484 113.795L171.898 102.584C171.898 102.584 170.803 95.8462 173.352 95.2056C176.868 94.3247 178.151 96.3374 178.55 97.1862C178.948 98.035 180.589 102.925 180.589 102.925L180.683 103.262C180.683 103.294 180.683 103.326 180.683 103.363V103.422C180.71 103.514 180.739 103.616 180.771 103.726C180.835 103.95 180.911 104.217 180.993 104.521C181.773 107.303 183.273 112.871 183.208 114.243C183.12 116.096 182.411 126.356 183.413 128.487L184.972 114.313C184.972 114.313 182.458 103.39 183.191 101.815C183.923 100.24 187.375 101.98 187.785 102.6C188.195 103.219 191.547 106.967 192.145 108.397L192.731 109.828C192.731 109.828 193.557 106.443 195.497 107.324C197.436 108.205 197.677 112.508 197.811 114.387C197.946 116.266 199.353 128.353 199.569 128.374C199.786 128.396 202.025 134.674 201.72 138.822C201.081 147.7 202.769 154.304 202.828 157.71C202.886 161.116 200.067 169.007 200.067 169.007C200.167 169.162 202.007 172.012 202.511 174.516C202.88 176.353 209.449 182.989 214.817 188.269C218.55 191.91 221.679 194.888 221.843 195.214Z" fill="white"/>
<path opacity="0.4" d="M182.048 197.104C179.833 194.04 177.442 190.82 175.174 187.906C171.459 183.138 166.736 179.022 166.331 178.125C165.159 175.456 156.123 165.462 154.102 161.575C152.08 157.689 151.617 145.597 150.726 142.751C149.836 139.906 152.391 137.189 154.442 135.865C156.493 134.541 158.643 131.06 158.643 131.06C158.643 131.06 156.375 123.009 156.352 118.914C156.328 114.82 154.799 100.528 156.627 99.1936C158.456 97.8589 160.091 98.4195 160.548 99.3377C162.048 102.365 163.396 109.978 164.55 113.485C165.704 116.993 167.873 127.168 168.939 127.899C170.006 128.631 171.904 125.887 171.904 125.887C171.904 125.887 172.086 117.345 172.49 113.805L171.904 102.594C171.904 102.594 170.809 95.8569 173.358 95.2163C176.874 94.3354 178.157 96.3481 178.555 97.1969C178.954 98.0458 180.595 102.936 180.595 102.936L180.688 103.272C180.688 103.304 180.688 103.336 180.688 103.374V103.432C180.712 103.525 180.741 103.626 180.776 103.737C180.841 103.961 180.917 104.228 180.999 104.532C180.091 103.224 178.843 102.108 177.172 101.815C172.484 100.982 173.498 105.733 173.944 108.584C174.196 110.476 174.147 112.391 173.797 114.27L174.969 113.656C174.125 115.028 172.918 126.431 172.918 128.967C172.918 131.503 170.715 132.346 168.74 131.604C166.765 130.862 166.062 119.224 164.562 117.137C163.062 115.049 158.889 119.037 158.702 122.684C158.514 126.33 162.247 137.205 161.362 139.767C160.477 142.33 160.489 152.046 160.489 152.046L159.411 149.542C159.481 149.884 159.411 151.032 157.155 154.411C156.307 155.634 155.759 157.009 155.548 158.443C155.337 159.876 155.467 161.334 155.93 162.718C157.307 165.489 164.292 172.792 165.464 173.545C165.464 173.545 166.314 170.373 168.98 171.217C168.072 172.532 167.411 173.975 167.023 175.488C166.472 177.816 172.033 179.305 173.774 181.521C174.84 182.871 175.555 186.987 182.048 197.104Z" fill="white"/>
<path opacity="0.4" d="M214.852 188.274C209.367 183.24 199.716 178.446 200.302 177.191C201.087 175.504 200.091 171.911 198.403 168.996C196.715 166.081 198.989 161.351 198.989 161.351L200.032 164.101C200.867 160.93 200.964 157.635 200.319 154.427C199.253 148.976 198.421 150.893 198.421 150.893C198.421 150.893 198.637 145.981 199.593 143.301C200.548 140.621 201.351 134.114 200.032 130.264C198.714 126.415 195.93 127.141 195.186 128.465C194.442 129.789 195.239 134.952 195.854 136.644C196.469 138.336 193.85 141.182 193.797 139.068C193.744 136.954 192.754 131.06 192.754 131.06L194.74 119.224L192.754 109.823C192.754 109.823 193.58 106.438 195.52 107.319C197.459 108.2 197.7 112.503 197.835 114.382C197.969 116.261 199.376 128.348 199.593 128.369C199.809 128.391 202.048 134.669 201.743 138.817C201.104 147.695 202.792 154.299 202.851 157.705C202.909 161.111 200.091 169.002 200.091 169.002C200.19 169.156 202.03 172.007 202.534 174.511C202.903 176.348 209.473 182.983 214.84 188.263L214.852 188.274Z" fill="white"/>
<path opacity="0.4" d="M192.144 108.397C192.256 108.664 192.349 108.883 192.42 109.059C190.556 105.114 187.38 106.337 186.818 107.458C186.255 108.579 188.148 115.535 188.576 116.613C189.003 117.692 186.876 126.303 186.566 129.154C186.255 132.005 185.429 132.587 185.429 132.587C183.325 132.731 183.085 127.44 183.085 126.714C183.126 127.322 183.256 127.921 183.472 128.497L185.03 114.323C185.03 114.323 182.458 103.39 183.19 101.815C183.923 100.24 187.374 101.98 187.785 102.6C188.195 103.219 191.547 106.967 192.144 108.397Z" fill="white"/>
<path d="M221.843 195.214C221.445 194.392 203.144 177.597 202.505 174.511C201.99 171.938 200.056 168.996 200.056 168.996C200.056 168.996 202.874 161.122 202.816 157.7C202.757 154.278 201.058 147.69 201.708 138.812C202.013 134.663 199.78 128.385 199.558 128.364C199.335 128.343 197.929 116.256 197.8 114.377C197.671 112.497 197.431 108.195 195.485 107.314C193.539 106.433 192.719 109.818 192.719 109.818L192.133 108.387C191.547 106.956 188.183 103.208 187.773 102.589C187.363 101.97 183.917 100.224 183.179 101.804C182.441 103.384 185.013 114.291 185.013 114.291L183.466 128.481C182.464 126.346 183.173 116.09 183.261 114.238C183.349 112.385 180.595 102.92 180.595 102.92C180.595 102.92 178.942 98.0512 178.555 97.1756C178.169 96.3001 176.874 94.3141 173.358 95.195C170.809 95.8356 171.904 102.573 171.904 102.573L172.49 113.784C172.098 117.34 171.904 125.865 171.904 125.865C171.904 125.865 170.006 128.604 168.939 127.878C167.873 127.152 165.704 116.982 164.55 113.464C163.396 109.946 162.048 102.343 160.548 99.3164C160.091 98.3982 158.456 97.8376 156.627 99.1723C154.799 100.507 156.323 114.793 156.352 118.893C156.381 122.993 158.643 131.039 158.643 131.039C158.643 131.039 156.493 134.498 154.442 135.843C152.391 137.189 149.836 139.879 150.726 142.73C151.617 145.581 152.08 157.678 154.102 161.554C156.123 165.43 165.136 175.435 166.331 178.104C166.736 179.001 171.459 183.117 175.174 187.884C182.47 197.243 190.996 209.773 190.996 209.986" stroke="#263238" stroke-linecap="round" stroke-linejoin="round"/>
<path d="M158.637 131.065C158.637 131.065 160.091 137.626 160.038 138.726C160.038 138.726 158.766 143.792 158.755 147.076C157.865 148.313 157.066 149.602 156.364 150.935C155.871 152.121 154.992 155.036 155.356 156.658" stroke="#263238" stroke-linecap="round" stroke-linejoin="round"/>
<path d="M155.982 140.76C155.982 140.76 159.545 140.787 159.317 142.154" stroke="#263238" stroke-linecap="round" stroke-linejoin="round"/>
<path d="M158.754 147.076C158.754 147.076 156.469 146.173 155.666 147.386" stroke="#263238" stroke-linecap="round" stroke-linejoin="round"/>
<path d="M171.91 125.887C171.91 125.887 171.746 130.916 170.292 130.515" stroke="#263238" stroke-linecap="round" stroke-linejoin="round"/>
<path d="M183.466 128.481C183.466 128.481 183.044 131.231 184.181 132.079" stroke="#263238" stroke-linecap="round" stroke-linejoin="round"/>
<path d="M192.736 109.828C192.736 109.828 194.319 116.768 194.682 118.413C195.045 120.057 192.883 128.449 192.924 130.633C192.965 132.816 193.99 135.939 193.85 137.407" stroke="#263238" stroke-linecap="round" stroke-linejoin="round"/>
<path d="M199.054 162.536C199.054 162.536 198.544 167.069 200.073 169.007" stroke="#263238" stroke-linecap="round" stroke-linejoin="round"/>
<path d="M168.33 171.505C168.33 171.505 164.919 174.335 166.167 177.816" stroke="#263238" stroke-linecap="round" stroke-linejoin="round"/>
<path d="M190.744 136.228C190.797 138.224 189.514 140.552 189.379 143.312" stroke="#263238" stroke-linecap="round" stroke-linejoin="round"/>
<path d="M179.88 134.444C180.606 136.078 179.024 139.634 178.784 140.968C178.688 142.012 178.813 143.064 179.153 144.065" stroke="#263238" stroke-linecap="round" stroke-linejoin="round"/>
<path d="M200.302 140.071C200.009 141.806 198.661 143.045 198.403 148.384" stroke="#263238" stroke-linecap="round" stroke-linejoin="round"/>
<path d="M167.029 133.937C168.013 134.914 167.351 139.58 167.615 140.344" stroke="#263238" stroke-linecap="round" stroke-linejoin="round"/>
<path d="M185.388 107.058C185.388 107.058 188.74 104.82 191.623 107.458" stroke="#263238" stroke-linecap="round" stroke-linejoin="round"/>
<path d="M173.844 101.917C173.844 101.917 174.43 101.025 177.26 101.244C180.091 101.463 180.594 102.916 180.594 102.916" stroke="#263238" stroke-linecap="round" stroke-linejoin="round"/>
<path d="M165.575 117.158C165.575 117.158 164.626 115.882 162.124 116.304C159.622 116.726 158.508 119.95 158.508 119.95" fill="white"/>
<path d="M165.575 117.158C165.575 117.158 164.626 115.882 162.124 116.304C159.622 116.726 158.508 119.95 158.508 119.95" stroke="#263238" stroke-linecap="round" stroke-linejoin="round"/>
<path d="M199.575 128.375C199.575 128.375 197.489 125.619 194.981 126.8" stroke="#263238" stroke-linecap="round" stroke-linejoin="round"/>
<path opacity="0.2" d="M110.702 108.194C114.218 110.677 111.253 125.913 111.253 125.913L111.564 130.873L117.593 128.481L120.342 139.078C120.342 139.078 120.271 142.96 122.504 144.417C122.504 144.417 123.055 153.124 122.504 159.488C121.953 165.852 110.784 173.331 106.934 180.01C103.084 186.688 77.974 206.319 77.974 206.319L56.7139 197.104L72.0847 140.547L85.8557 124.419L94.0187 105.867C94.0187 105.867 95.4192 117.986 94.6047 126.154L110.702 108.194Z" fill="black" fill-opacity="0.7"/>
<path d="M116.621 142.041C116.088 144.38 117.371 157.198 117.148 158.927C116.926 160.657 105.733 172.274 105.17 173.155C104.608 174.036 97.1247 177.96 95.3843 179.834C87.2506 188.477 82.8087 196.437 79.24 204.418C78.5544 205.955 77.898 207.498 77.2534 209.047L44.9766 191.963C47.6897 188.899 50.2506 186.176 52.5946 183.699C57.2826 178.675 61.0154 174.655 62.8437 170.859C63.4048 169.89 64.0474 168.962 64.7658 168.083C65.4924 167.144 66.1429 166.369 66.1429 166.369C66.1429 166.369 63.7989 160.353 64.3439 158.463C64.8888 156.573 63.67 141.038 63.67 141.038C63.67 141.038 62.0819 130.462 60.5173 127.793C60.133 127.096 59.9591 126.318 60.0133 125.54C60.0895 123.1 61.6424 120.025 62.4042 116.464C63.4238 111.659 62.9316 109.284 66.1312 110.944C69.3307 112.604 67.8364 122.689 67.8364 122.689L72.6709 132.448C73.9425 130.088 72.6709 123.201 72.6065 121.573C72.6065 121.306 72.6065 120.863 72.5596 120.286C72.46 117.478 72.2549 111.633 72.5186 109.326C72.5186 109.198 72.5186 109.081 72.5654 108.974C72.9581 106.593 74.3586 99.0173 75.2493 98.1738C76.5737 96.9246 78.6774 95.8729 80.6581 98.7077C81.7656 100.309 81.291 113.01 81.291 113.01C81.291 113.01 85.8852 107.96 87.2799 106.726C88.6746 105.493 92.9055 103.24 94.0365 105.851C95.1675 108.461 90.9951 116.528 90.9951 116.528C91.8683 118.397 91.9738 123.57 91.9738 123.57C91.9738 123.57 93.9486 130.035 95.1616 129.976H95.2143C95.5659 129.907 95.9527 128.732 96.357 127.083C97.3532 123.041 98.4374 116.128 99.287 115.524L99.8731 115.097C99.8998 115.067 99.9314 115.04 99.9668 115.017L100.184 114.841C102.258 113.159 106.63 109.422 106.63 109.422C106.63 109.422 106.94 107.634 110.767 108.184C114.593 108.734 109.067 119.021 109.067 119.021C108.3 122.294 107.122 130.713 107.122 130.713C106.764 134.215 106.975 143.627 106.975 143.627C106.975 143.627 108.786 138.149 108.669 136.153C108.552 134.156 112.267 129.266 113.357 128.006C114.447 126.746 119.311 127.189 117.957 129.608C116.603 132.026 117.154 139.692 116.621 142.041Z" fill="white"/>
<path opacity="0.4" d="M62.8263 170.881C63.3874 169.911 64.03 168.983 64.7484 168.104C64.7484 168.104 62.8439 172.909 62.6564 175.466C62.5333 177.153 57.6578 180.074 52.5771 183.72C57.2945 178.696 60.998 174.676 62.8263 170.881Z" fill="white"/>
<path opacity="0.4" d="M64.748 168.104C65.4747 167.165 66.1251 166.391 66.1251 166.391C66.1251 166.391 63.7811 160.374 64.3261 158.484C64.8711 156.594 63.6522 141.059 63.6522 141.059C63.6522 141.059 62.0641 130.483 60.4995 127.814L64.1445 133.617C64.1445 133.617 63.787 138.203 64.8242 140.717C65.8614 143.232 67.1682 150.903 67.1682 150.903C67.1682 150.903 65.6329 157.353 66.1544 159.675C66.676 161.997 69.0258 161.154 69.0258 161.154C69.0258 161.154 70.1803 165.403 64.748 168.104Z" fill="white"/>
<path opacity="0.4" d="M73.2509 124.418C75.7649 137.829 71.4343 134.119 69.8697 131.225C68.3051 128.332 64.6309 122.854 61.865 124.023C61.0882 124.356 60.4375 124.891 59.9956 125.561C60.0718 123.121 61.6247 120.046 62.3865 116.485C63.4061 111.68 62.9139 109.305 66.1134 110.965C69.313 112.625 67.8187 122.71 67.8187 122.71L72.6532 132.469C73.9248 130.109 72.6532 123.223 72.5887 121.594C72.5887 121.327 72.5887 120.884 72.5419 120.308C72.7352 121.541 72.9696 122.913 73.2509 124.418Z" fill="white"/>
<path opacity="0.4" d="M79.4041 111.168C79.4041 111.168 76.6909 107.933 74.3352 108.098C73.9307 108.118 73.5414 108.246 73.2155 108.465C72.8895 108.684 72.6411 108.985 72.501 109.332C72.501 109.203 72.501 109.086 72.5479 108.979C72.9405 106.598 74.341 99.0227 75.2317 98.1792C76.5561 96.93 78.6598 95.8783 80.6405 98.7131C81.7481 100.315 81.2734 113.015 81.2734 113.015C81.2734 113.015 85.8677 107.965 87.2623 106.732C88.657 105.498 92.8879 103.246 94.0189 105.856C95.1499 108.467 90.9776 116.533 90.9776 116.533C91.8507 118.402 91.9562 123.575 91.9562 123.575C91.9562 123.575 93.931 130.04 95.144 129.981C92.4719 134.562 90.6904 124.435 90.6904 124.435C91.0889 122.342 89.6708 117.804 89.8114 116.608C89.9521 115.412 87.3502 111.184 82.9669 112.337C78.5837 113.49 81.7481 129.271 81.7481 129.271C80.8819 130.528 80.378 131.964 80.2831 133.446C78.9294 131.925 80.2831 127.574 80.2831 127.574C79.0818 123.41 79.4041 111.168 79.4041 111.168Z" fill="white"/>
<path opacity="0.4" d="M99.8319 115.081C97.9626 116.87 98.2204 121.392 96.3159 127.066C97.3121 123.025 98.3962 116.112 99.2459 115.508L99.8319 115.081Z" fill="white"/>
<path opacity="0.4" d="M116.621 142.041C116.088 144.38 117.371 157.198 117.149 158.928C116.926 160.657 105.733 172.274 105.171 173.155C104.608 174.036 97.125 177.96 95.3845 179.834C87.2509 188.477 82.809 196.437 79.2402 204.418C80.5845 200.281 82.2069 196.223 84.0982 192.267C87.9482 184.382 89.5187 182.978 91.8275 180.725C94.1363 178.472 93.8844 173.683 93.8844 173.683C95.5885 173.31 97.3352 173.121 99.088 173.123C102.018 173.123 110.691 161.858 113.674 159.883C116.656 157.908 117.19 157.908 113.674 153.551C110.158 149.195 111.154 154.251 110.099 154.085C109.044 153.92 108.47 156.023 108.47 156.023C108.101 151.582 104.954 146.414 104.292 145.122C103.63 143.83 105.897 136.254 105.429 134.146C104.96 132.037 107.444 119.197 107.444 119.197C107.444 119.197 107.134 114.27 102.235 114.254C101.483 114.216 100.74 114.42 100.137 114.83C102.211 113.149 106.583 109.412 106.583 109.412C106.583 109.412 106.894 107.623 110.72 108.173C114.547 108.723 109.021 119.011 109.021 119.011C108.253 122.283 107.075 130.702 107.075 130.702C106.718 134.204 106.929 143.616 106.929 143.616C106.929 143.616 108.739 138.139 108.622 136.142C108.505 134.146 112.22 129.255 113.31 127.995C114.4 126.736 119.264 127.179 117.91 129.597C116.557 132.015 117.154 139.692 116.621 142.041Z" fill="white"/>
<path d="M77.2476 209.095C81.2265 199.523 85.6743 190.18 95.3843 179.86C97.1423 178.013 104.602 174.089 105.17 173.182C105.739 172.274 116.931 160.679 117.148 158.954C117.365 157.23 116.088 144.406 116.621 142.068C117.154 139.73 116.533 132.021 117.881 129.618C119.229 127.216 114.365 126.778 113.281 128.017C112.197 129.255 108.493 134.188 108.593 136.164C108.692 138.139 106.899 143.638 106.899 143.638C106.899 143.638 106.688 134.226 107.046 130.723C107.046 130.723 108.218 122.304 108.991 119.032C108.991 119.032 114.511 108.739 110.691 108.194C106.87 107.65 106.553 109.433 106.553 109.433C106.553 109.433 100.453 114.654 99.246 115.508C98.0388 116.363 96.3922 129.709 95.1792 129.96C93.9661 130.211 91.9386 123.554 91.9386 123.554C91.9386 123.554 91.8331 118.381 90.96 116.512C90.96 116.512 95.1264 108.467 94.0013 105.835C92.8762 103.203 88.6453 105.482 87.2447 106.71C85.8442 107.938 81.2558 112.994 81.2558 112.994C81.2558 112.994 81.7305 100.283 80.6229 98.6916C78.6423 95.8461 76.5209 96.8978 75.2142 98.1578C74.3234 99.0013 72.9229 106.577 72.5303 108.958C72.1377 111.339 72.5303 119.923 72.5713 121.557C72.6123 123.191 73.9074 130.072 72.6358 132.432L67.8013 122.673C67.8013 122.673 69.3014 112.577 66.096 110.928C62.8906 109.278 63.3887 111.659 62.369 116.448C61.3494 121.237 58.9234 125.129 60.4821 127.803C62.0409 130.478 63.6348 141.048 63.6348 141.048C63.6348 141.048 64.842 156.584 64.3087 158.474C63.7754 160.364 66.1253 166.386 66.1253 166.386C66.1253 166.386 63.418 169.637 62.8261 170.875C60.0954 176.529 53.1864 182.711 44.9707 192.011" stroke="#263238" stroke-linecap="round" stroke-linejoin="round"/>
<path d="M81.2733 113.026C80.5928 113.943 80.2482 115.032 80.2889 116.138C80.2889 118.167 81.748 129.271 81.748 129.271C81.748 129.271 80.6874 130.414 80.6346 131.407" stroke="#263238" stroke-linecap="round" stroke-linejoin="round"/>
<path d="M106.911 143.611C107.071 145.486 107.601 147.32 108.476 149.024C109.847 151.491 109.402 152.852 108.933 154.31C108.619 155.588 108.452 156.892 108.435 158.201" stroke="#263238" stroke-linecap="round" stroke-linejoin="round"/>
<path d="M73.169 130.259C73.169 130.259 74.1887 133.206 72.2959 134.605" stroke="#263238" stroke-linecap="round" stroke-linejoin="round"/>
<path d="M95.1969 129.96C95.1969 129.96 95.3962 131.119 93.5972 131.226" stroke="#263238" stroke-linecap="round" stroke-linejoin="round"/>
<path d="M107.28 116.613C107.28 116.613 102.768 112.129 99.2637 115.508" stroke="#263238" stroke-linecap="round" stroke-linejoin="round"/>
<path d="M88.997 114.094C88.997 114.094 86.9167 111.696 85.1118 111.841C83.3069 111.985 80.8692 112.988 80.5938 114.307" stroke="#263238" stroke-linecap="round" stroke-linejoin="round"/>
<path d="M109.319 152.868C110.047 153.817 110.577 154.879 110.884 156.002" stroke="#263238" stroke-linecap="round" stroke-linejoin="round"/>
<path d="M97.5992 134.642C96.1987 137.018 96.8667 141.048 96.3511 142.153" stroke="#263238" stroke-linecap="round" stroke-linejoin="round"/>
<path d="M82.762 130.697C83.0902 132.063 82.053 134.29 81.8948 135.929C81.7365 137.568 83.2074 140.098 82.9378 142.399" stroke="#263238" stroke-linecap="round" stroke-linejoin="round"/>
<path d="M73.2508 136.292C73.2508 136.292 72.0261 138.865 72.0788 140.563C72.1315 142.26 72.7937 145.981 72.7937 145.981" stroke="#263238" stroke-linecap="round" stroke-linejoin="round"/>
<path d="M64.2441 136.169C64.2441 136.169 63.7987 138.838 64.8301 140.717C65.8614 142.597 66.8635 146.59 66.8635 146.59" stroke="#263238" stroke-linecap="round" stroke-linejoin="round"/>
<path d="M66.1255 166.385C66.6656 166.249 67.1484 165.968 67.511 165.579C67.8736 165.19 68.0993 164.71 68.1589 164.202" stroke="#263238" stroke-linecap="round" stroke-linejoin="round"/>
<path d="M95.5836 174.522C95.5836 174.522 96.7028 178.296 94.5581 180.725" stroke="#263238" stroke-linecap="round" stroke-linejoin="round"/>
<path d="M60.0249 125.113C60.0249 125.113 63.1776 122.309 65.5626 124.675" stroke="#263238" stroke-linecap="round" stroke-linejoin="round"/>
<path d="M72.5479 108.98C72.5479 108.98 74.8919 106.742 77.6343 109.135" stroke="#263238" stroke-linecap="round" stroke-linejoin="round"/>
</svg>
